<svg width="186" height="60" viewBox="0 0 186 60" fill="none" xmlns="http://www.w3.org/2000/svg">
<path d="M179.873 59.0323H6.27584C3.09322 59.0323 0.489258 56.4183 0.489258 53.2235V6.75275C0.489258 3.55789 3.09322 0.943909 6.27584 0.943909H179.873C183.056 0.943909 185.66 3.55789 185.66 6.75275V53.2235C185.66 56.4183 183.056 59.0323 179.873 59.0323Z" fill="#F3BB44"/>
<path d="M39.5484 29.6977C39.5484 25.1959 43.3097 23.0175 43.4544 22.8723C41.2844 19.8227 38.1018 19.387 36.9444 19.2418C34.1958 18.9514 31.4472 20.8392 30.1452 20.8392C28.6986 20.8392 26.5286 19.2418 24.214 19.2418C21.176 19.2418 18.4274 20.9845 16.8361 23.7437C13.6534 29.2621 15.9681 37.3944 19.006 41.8963C20.5973 44.0746 22.3333 46.5434 24.648 46.3981C26.9626 46.2529 27.8306 44.9459 30.5792 44.9459C33.3278 44.9459 34.0512 46.3981 36.5105 46.3981C38.9697 46.3981 40.5611 44.2198 42.0077 42.0415C43.7437 39.5727 44.467 37.104 44.467 36.9588C44.3223 36.8135 39.5484 35.0709 39.5484 29.6977Z" fill="white"/>
<path d="M35.064 16.3375C36.2213 14.74 37.0893 12.7069 36.9447 10.5286C35.2087 10.6738 32.8941 11.6904 31.7367 13.2878C30.5794 14.5948 29.5668 16.7731 29.8561 18.8062C31.7367 18.9514 33.762 17.7897 35.064 16.3375Z" fill="white"/>
<path d="M72.5322 46.1075H69.3496L67.6136 40.5891H61.5377L59.9464 46.1075H56.9084L62.9843 27.374H66.7456L72.5322 46.1075ZM67.0349 38.2655L65.4436 33.328C65.2989 32.8924 65.0096 31.5854 64.431 29.8427C64.2863 30.5688 63.997 31.8758 63.563 33.328L61.9716 38.2655H67.0349Z" fill="white"/>
<path d="M88.0113 39.2821C88.0113 41.6056 87.4327 43.3482 86.1307 44.8005C84.9734 45.9622 83.6714 46.5431 81.9354 46.5431C80.1994 46.5431 78.8975 45.9622 78.1741 44.6552V51.7711H75.1362V37.249C75.1362 35.7967 75.1362 34.3445 74.9915 32.7471H77.5955L77.7401 34.9254C78.7528 33.328 80.1994 32.4567 82.2248 32.4567C83.8161 32.4567 85.1181 33.0375 86.1307 34.3445C87.4327 35.5063 88.0113 37.1037 88.0113 39.2821ZM84.9734 39.2821C84.9734 37.9751 84.6841 36.8133 84.1054 36.0872C83.5267 35.2159 82.6587 34.7802 81.5014 34.7802C80.7781 34.7802 80.0548 35.0706 79.4761 35.5063C78.8975 35.942 78.4635 36.6681 78.3188 37.3942C78.1741 37.8298 78.1741 38.1203 78.1741 38.2655V40.589C78.1741 41.6056 78.4635 42.3317 79.0421 43.0578C79.6208 43.7839 80.4888 44.0744 81.3568 44.0744C82.5141 44.0744 83.3821 43.6387 83.9607 42.7674C84.6841 41.896 84.9734 40.7343 84.9734 39.2821Z" fill="white"/>
<path d="M103.491 39.2821C103.491 41.6056 102.912 43.3482 101.61 44.8005C100.453 45.9622 99.1507 46.5431 97.4147 46.5431C95.6787 46.5431 94.3768 45.9622 93.6534 44.6552V51.7711H90.6155V37.249C90.6155 35.7967 90.6155 34.3445 90.4708 32.7471H93.0748L93.2195 34.9254C94.2321 33.328 95.6788 32.4567 97.7041 32.4567C99.2954 32.4567 100.597 33.0375 101.61 34.3445C102.912 35.5063 103.491 37.1037 103.491 39.2821ZM100.453 39.2821C100.453 37.9751 100.163 36.8133 99.5847 36.0872C99.006 35.2159 98.1381 34.7802 96.9807 34.7802C96.2574 34.7802 95.5341 35.0706 94.9554 35.5063C94.3768 35.942 93.9428 36.6681 93.7981 37.3942C93.6534 37.8298 93.6534 38.1203 93.6534 38.2655V40.589C93.6534 41.6056 93.9428 42.3317 94.5214 43.0578C95.1001 43.7839 95.9681 44.0744 96.8361 44.0744C97.9934 44.0744 98.8614 43.6387 99.44 42.7674C100.163 41.896 100.453 40.7343 100.453 39.2821Z" fill="white"/>
<path d="M120.85 40.8798C120.85 42.4772 120.271 43.7842 119.259 44.8007C118.101 45.9625 116.365 46.3982 114.195 46.3982C112.17 46.3982 110.579 45.9625 109.421 45.2364L110.145 42.7677C111.447 43.4938 112.893 43.9294 114.485 43.9294C115.642 43.9294 116.51 43.639 117.089 43.2033C117.667 42.6224 117.957 42.0415 117.957 41.1702C117.957 40.4441 117.667 39.718 117.233 39.2824C116.655 38.7015 115.787 38.2658 114.629 37.8301C111.302 36.6684 109.711 34.7805 109.711 32.457C109.711 30.8595 110.289 29.6978 111.447 28.6812C112.604 27.6647 114.051 27.229 116.076 27.229C117.812 27.229 119.114 27.5194 120.271 28.1003L119.548 30.5691C118.535 29.9882 117.378 29.6978 115.931 29.6978C114.919 29.6978 114.051 29.9882 113.472 30.4239C113.038 30.8595 112.749 31.4404 112.749 32.1665C112.749 32.8926 113.038 33.4735 113.617 34.0544C114.051 34.4901 115.063 34.9257 116.365 35.5066C117.957 36.0875 119.114 36.9588 119.982 37.8301C120.416 38.5562 120.85 39.5728 120.85 40.8798Z" fill="white"/>
<path d="M130.687 34.9256H127.36V41.4605C127.36 43.058 127.938 43.9293 129.096 43.9293C129.674 43.9293 130.108 43.9293 130.398 43.7841L130.542 46.1076C129.964 46.398 129.24 46.398 128.228 46.398C127.07 46.398 126.058 46.1076 125.479 45.3815C124.756 44.6554 124.466 43.4936 124.466 41.751V34.9256H122.441V32.602H124.466V30.1333L127.36 29.262V32.602H130.687V34.9256Z" fill="white"/>
<path d="M145.588 39.2824C145.588 41.3155 145.01 43.0581 143.852 44.3651C142.55 45.6721 140.959 46.3982 138.934 46.3982C136.908 46.3982 135.317 45.6721 134.16 44.3651C133.002 43.0581 132.424 41.4607 132.424 39.4276C132.424 37.3945 133.002 35.6519 134.304 34.3449C135.462 33.0379 137.198 32.3118 139.223 32.3118C141.248 32.3118 142.84 33.0379 143.997 34.3449C145.01 35.6519 145.588 37.2493 145.588 39.2824ZM142.406 39.4276C142.406 38.1206 142.116 37.1041 141.538 36.2327C140.959 35.2162 139.946 34.6353 138.789 34.6353C137.632 34.6353 136.619 35.2162 136.04 36.2327C135.462 37.1041 135.172 38.2658 135.172 39.4276C135.172 40.7346 135.462 41.7511 136.04 42.6225C136.619 43.639 137.632 44.2199 138.789 44.2199C139.946 44.2199 140.814 43.639 141.538 42.6225C142.116 41.7511 142.406 40.5894 142.406 39.4276Z" fill="white"/>
<path d="M155.28 35.216C154.991 35.216 154.701 35.0708 154.267 35.0708C153.255 35.0708 152.387 35.5065 151.808 36.2326C151.374 36.9587 151.085 37.83 151.085 38.8465V45.9624H148.047V36.6682C148.047 35.0708 148.047 33.7638 147.902 32.4568H150.506L150.651 35.0708H150.795C151.085 34.1995 151.663 33.4734 152.242 32.8925C152.965 32.4568 153.689 32.1664 154.412 32.1664C154.701 32.1664 154.991 32.1664 155.135 32.1664V35.216H155.28Z" fill="white"/>
<path d="M168.589 38.7015C168.589 39.2824 168.589 39.718 168.445 40.0085H159.475C159.475 41.3155 159.909 42.332 160.777 43.0581C161.501 43.639 162.513 44.0747 163.671 44.0747C164.973 44.0747 166.275 43.9294 167.287 43.4938L167.721 45.5269C166.419 46.1078 164.973 46.3982 163.237 46.3982C161.211 46.3982 159.475 45.8173 158.318 44.5103C157.161 43.3486 156.582 41.6059 156.582 39.5728C156.582 37.5397 157.161 35.7971 158.173 34.4901C159.331 33.0379 160.922 32.3118 162.947 32.3118C164.828 32.3118 166.419 33.0379 167.287 34.4901C168.3 35.6519 168.589 37.1041 168.589 38.7015ZM165.841 37.9754C165.841 37.1041 165.696 36.378 165.262 35.6519C164.683 34.7805 163.96 34.3449 162.947 34.3449C161.935 34.3449 161.211 34.7805 160.633 35.5066C160.199 36.0875 159.909 36.9588 159.765 37.8302H165.841V37.9754Z" fill="white"/>
<path d="M66.1671 15.9017C66.1671 17.4991 65.7331 18.8061 64.7204 19.6774C63.8525 20.4035 62.5505 20.8392 60.8145 20.8392C59.9465 20.8392 59.2232 20.8392 58.6445 20.694V11.6903C59.3679 11.545 60.2358 11.545 61.2485 11.545C62.8398 11.545 63.9971 11.8355 64.8651 12.5616C65.5884 13.2877 66.1671 14.4495 66.1671 15.9017ZM64.5758 15.9017C64.5758 14.8851 64.2865 14.0138 63.7078 13.4329C63.1291 12.852 62.2611 12.5616 61.2485 12.5616C60.8145 12.5616 60.3805 12.5616 60.0912 12.7068V19.5322C60.2358 19.5322 60.6698 19.5322 61.1038 19.5322C62.2611 19.5322 63.1291 19.2418 63.7078 18.6609C64.2865 18.08 64.5758 17.0634 64.5758 15.9017Z" fill="white"/>
<path d="M74.268 17.3537C74.268 18.3703 73.9787 19.2416 73.4 19.8225C72.8214 20.5486 71.9534 20.839 70.9407 20.839C69.9281 20.839 69.2048 20.5486 68.6261 19.8225C68.0475 19.2416 67.7581 18.3703 67.7581 17.3537C67.7581 16.3372 68.0475 15.4658 68.6261 14.885C69.2048 14.1589 70.0728 13.8684 71.0854 13.8684C72.0981 13.8684 72.8214 14.1589 73.4 14.885C73.9787 15.4658 74.268 16.3372 74.268 17.3537ZM72.8214 17.3537C72.8214 16.7728 72.6767 16.1919 72.3874 15.7563C72.0981 15.1754 71.6641 15.0302 71.0854 15.0302C70.5067 15.0302 70.0728 15.3206 69.7834 15.7563C69.4941 16.1919 69.3494 16.7728 69.3494 17.3537C69.3494 17.9346 69.4941 18.5155 69.7834 18.9511C70.0728 19.532 70.5067 19.6773 71.0854 19.6773C71.6641 19.6773 72.0981 19.3868 72.3874 18.8059C72.6767 18.5155 72.8214 17.9346 72.8214 17.3537Z" fill="white"/>
<path d="M85.4074 14.0138L83.3821 20.694H82.0801L81.2121 17.7895C80.9228 17.0634 80.7781 16.3373 80.6334 15.6112C80.4888 16.3373 80.3441 17.0634 80.0548 17.7895L79.1868 20.694H77.8848L75.7148 14.0138H77.1615L77.8848 17.2087C78.0295 17.9348 78.1741 18.6609 78.3188 19.387C78.4635 18.8061 78.6081 18.08 78.8975 17.2087L79.7655 14.0138H80.9228L81.7908 17.0634C82.0801 17.7895 82.2248 18.5156 82.3694 19.2418C82.5141 18.5156 82.6587 17.7895 82.8034 17.0634L83.6714 14.0138H85.4074Z" fill="white"/>
<path d="M92.9299 20.694H91.4832V16.9182C91.4832 15.7565 91.0492 15.1756 90.1813 15.1756C89.7473 15.1756 89.4579 15.3208 89.1686 15.6113C88.8793 15.9017 88.7346 16.3374 88.7346 16.773V20.694H87.288V15.9017C87.288 15.3208 87.288 14.7399 87.288 14.0138H88.5899V15.0304C88.7346 14.7399 89.0239 14.4495 89.3133 14.1591C89.7473 13.8686 90.1813 13.7234 90.6152 13.7234C91.1939 13.7234 91.7726 13.8686 92.2066 14.3043C92.7852 14.7399 92.9299 15.466 92.9299 16.4826V20.694Z" fill="white"/>
<path d="M96.9808 20.6937H95.5342V10.9639H96.9808V20.6937Z" fill="white"/>
<path d="M105.661 17.3537C105.661 18.3703 105.371 19.2416 104.793 19.8225C104.214 20.5486 103.346 20.839 102.333 20.839C101.321 20.839 100.597 20.5486 100.019 19.8225C99.4401 19.2416 99.1508 18.3703 99.1508 17.3537C99.1508 16.3372 99.4401 15.4658 100.019 14.885C100.597 14.3041 101.465 13.8684 102.478 13.8684C103.491 13.8684 104.214 14.1589 104.793 14.885C105.371 15.4658 105.661 16.3372 105.661 17.3537ZM104.214 17.3537C104.214 16.7728 104.069 16.1919 103.78 15.7563C103.491 15.1754 103.057 15.0302 102.478 15.0302C101.899 15.0302 101.465 15.3206 101.176 15.7563C100.887 16.1919 100.742 16.7728 100.742 17.3537C100.742 17.9346 100.887 18.5155 101.176 18.9511C101.465 19.532 101.899 19.6773 102.478 19.6773C103.057 19.6773 103.491 19.3868 103.78 18.8059C104.069 18.5155 104.214 17.9346 104.214 17.3537Z" fill="white"/>
<path d="M112.749 20.6938H111.447L111.302 19.9677C110.868 20.5486 110.145 20.839 109.422 20.839C108.843 20.839 108.264 20.6938 107.975 20.2581C107.686 19.8225 107.396 19.3868 107.396 18.9511C107.396 18.0798 107.686 17.4989 108.409 17.0633C109.132 16.6276 110 16.4824 111.302 16.4824V16.3372C111.302 15.4658 110.868 15.0302 110 15.0302C109.277 15.0302 108.843 15.1754 108.264 15.4658L107.975 14.4493C108.554 14.0136 109.277 13.8684 110.29 13.8684C112.026 13.8684 112.894 14.7397 112.894 16.6276V19.0964C112.749 19.8225 112.749 20.2581 112.749 20.6938ZM111.302 18.3703V17.3537C109.711 17.3537 108.843 17.7894 108.843 18.6607C108.843 18.9511 108.988 19.2416 109.132 19.3868C109.277 19.532 109.566 19.6773 109.856 19.6773C110.145 19.6773 110.434 19.532 110.724 19.3868C111.013 19.2416 111.158 18.9511 111.302 18.6607C111.302 18.6607 111.302 18.5155 111.302 18.3703Z" fill="white"/>
<path d="M121.14 20.6938H119.838V19.6773C119.404 20.5486 118.68 20.8391 117.668 20.8391C116.8 20.8391 116.221 20.5486 115.643 19.9677C115.064 19.3869 114.919 18.5155 114.919 17.499C114.919 16.4824 115.209 15.6111 115.787 14.885C116.366 14.3041 117.089 14.0137 117.812 14.0137C118.68 14.0137 119.259 14.3041 119.693 14.885V11.1093H121.14V18.9512C121.14 19.5321 121.14 20.113 121.14 20.6938ZM119.693 17.9346V16.7729C119.693 16.6277 119.693 16.4824 119.693 16.3372C119.548 16.0468 119.404 15.7563 119.114 15.4659C118.825 15.1754 118.536 15.1754 118.102 15.1754C117.523 15.1754 117.089 15.4659 116.8 15.9015C116.51 16.3372 116.366 16.9181 116.366 17.6442C116.366 18.3703 116.51 18.806 116.8 19.2416C117.089 19.6773 117.523 19.9677 118.102 19.9677C118.536 19.9677 118.97 19.8225 119.259 19.3869C119.548 18.806 119.693 18.3703 119.693 17.9346Z" fill="white"/>
<path d="M133.726 17.3537C133.726 18.3703 133.436 19.2416 132.858 19.8225C132.279 20.5486 131.411 20.839 130.398 20.839C129.386 20.839 128.662 20.5486 128.084 19.8225C127.505 19.2416 127.216 18.3703 127.216 17.3537C127.216 16.3372 127.505 15.4658 128.084 14.885C128.662 14.1589 129.53 13.8684 130.543 13.8684C131.556 13.8684 132.279 14.1589 132.858 14.885C133.436 15.4658 133.726 16.3372 133.726 17.3537ZM132.134 17.3537C132.134 16.7728 131.99 16.1919 131.7 15.7563C131.411 15.1754 130.977 15.0302 130.398 15.0302C129.82 15.0302 129.386 15.3206 129.096 15.7563C128.807 16.1919 128.662 16.7728 128.662 17.3537C128.662 17.9346 128.807 18.5155 129.096 18.9511C129.386 19.532 129.82 19.6773 130.398 19.6773C130.977 19.6773 131.411 19.3868 131.7 18.8059C131.99 18.5155 132.134 17.9346 132.134 17.3537Z" fill="white"/>
<path d="M141.682 20.694H140.235V16.9182C140.235 15.7565 139.801 15.1756 138.933 15.1756C138.499 15.1756 138.21 15.3208 137.921 15.6113C137.631 15.9017 137.487 16.3374 137.487 16.773V20.694H136.04V15.9017C136.04 15.3208 136.04 14.7399 136.04 14.0138H137.342V15.0304C137.487 14.7399 137.776 14.4495 138.065 14.1591C138.499 13.8686 138.933 13.7234 139.367 13.7234C139.946 13.7234 140.525 13.8686 140.959 14.3043C141.537 14.7399 141.682 15.466 141.682 16.4826V20.694Z" fill="white"/>
<path d="M151.519 15.1753H149.928V18.3702C149.928 19.2415 150.217 19.532 150.796 19.532C151.085 19.532 151.23 19.532 151.519 19.532V20.6937C151.23 20.839 150.796 20.839 150.362 20.839C149.783 20.839 149.349 20.6937 149.06 20.2581C148.771 19.9676 148.626 19.2415 148.626 18.5154V15.1753H147.613V14.0136H148.626V12.8518L150.073 12.4161V14.0136H151.664V15.1753H151.519Z" fill="white"/>
<path d="M159.331 20.6937H157.884V16.9179C157.884 15.7562 157.45 15.1753 156.582 15.1753C155.859 15.1753 155.425 15.4657 155.135 16.1918C155.135 16.337 155.135 16.4823 155.135 16.7727V20.6937H153.689V10.9639H155.135V15.0301C155.569 14.304 156.293 13.8683 157.161 13.8683C157.739 13.8683 158.318 14.0135 158.607 14.4492C159.041 14.8848 159.331 15.7562 159.331 16.6275V20.6937Z" fill="white"/>
<path d="M167.287 17.0634C167.287 17.3539 167.287 17.4991 167.287 17.7895H162.947C162.947 18.5156 163.236 18.9513 163.526 19.2418C163.96 19.5322 164.394 19.6774 164.972 19.6774C165.696 19.6774 166.274 19.5322 166.708 19.387L166.998 20.4035C166.419 20.694 165.696 20.8392 164.828 20.8392C163.815 20.8392 162.947 20.5487 162.368 19.9679C161.79 19.387 161.5 18.5156 161.5 17.4991C161.5 16.4826 161.79 15.6112 162.368 15.0303C162.947 14.3042 163.67 14.0138 164.683 14.0138C165.696 14.0138 166.419 14.3042 166.853 15.0303C167.142 15.466 167.287 16.1921 167.287 17.0634ZM165.985 16.6278C165.985 16.1921 165.84 15.7564 165.696 15.466C165.406 15.0303 165.117 14.8851 164.538 14.8851C164.104 14.8851 163.67 15.0303 163.381 15.466C163.092 15.7564 162.947 16.1921 162.947 16.6278H165.985Z" fill="white"/>
</svg>
