<svg width="237" height="238" viewBox="0 0 237 238" fill="none" xmlns="http://www.w3.org/2000/svg">
<g clip-path="url(#clip0_1_763)">
<path d="M71.9931 130.614C69.5428 131.599 69.2489 132.006 70.1781 133.069C71.3428 134.412 71.0919 134.416 80.1738 132.137C90.2018 129.6 90.2282 129.594 88.589 128.142C87.2054 126.936 77.5231 128.353 71.9931 130.614Z" fill="#267FD0"/>
<path d="M141.587 117.317C140.104 116.975 139.945 117.013 133.07 119.152C130.568 119.925 127.049 120.888 125.237 121.27C118.975 122.588 122.389 124.898 128.986 123.808C139.569 122.061 146.516 118.477 141.587 117.317Z" fill="#267FD0"/>
<path d="M51.1793 138.923C49.2966 139.938 48.3697 140.274 48.0787 140.344C47.576 140.466 43.8257 134.568 43.5059 133.245C43.4931 133.192 41.1686 129.022 38.0267 137.454C35.7818 143.458 34.675 145.713 30.8708 151.87C27.2873 157.665 27.2801 157.75 28.9719 158.378C30.2686 158.876 31.3861 158.634 37.3359 156.719C42.5578 155.037 45.552 154.565 51.5728 154.565C55.943 154.573 56.5927 154.248 55.4234 152.654C54.3845 151.253 50.3254 144.31 50.4457 144.113C50.6864 143.718 57.54 140.213 60.9718 138.655C64.8342 136.909 61.0843 135.184 59.1346 135.459C57.3894 135.769 54.9914 136.853 51.1793 138.923Z" fill="#267FD0"/>
<path d="M112.75 123.365C106.926 123.485 95.9068 125.281 96.1051 126.101C96.5465 127.926 97.9897 128.221 103.059 127.528C113.52 126.091 114.934 126.841 115.437 124.983C115.662 124.061 114.453 123.345 112.75 123.365Z" fill="#267FD0"/>
<path d="M204.837 78.3616C200.717 81.01 193.181 89.9168 194.356 90.7248C195.9 91.7798 199.278 89.4227 206.895 82.0086C210.274 78.7273 207.338 76.7768 204.837 78.3616Z" fill="#267FD0"/>
<path d="M160.171 111.367C158.78 111.984 156.157 113.066 154.309 113.764C150.694 115.143 150.482 115.306 150.957 116.115C152.255 118.238 168.419 113.63 167.856 111.301C167.344 109.185 165 109.219 160.171 111.367Z" fill="#267FD0"/>
<path d="M185.598 95.5024C184.776 96.0374 178.957 101.393 176.576 103.704C175.013 105.231 175.326 106.527 177.814 105.813C181.195 104.856 186.984 100.656 188.642 98.0149C190.106 95.7288 187.124 94.5174 185.598 95.5024Z" fill="#267FD0"/>
</g>
<defs>
<clipPath id="clip0_1_763">
<rect width="195.977" height="195.977" fill="white" transform="translate(0.000976562 46.8882) rotate(-13.5918)"/>
</clipPath>
</defs>
</svg>
