<?xml version="1.0" encoding="UTF-8"?>
<svg xmlns="http://www.w3.org/2000/svg" xmlns:xlink="http://www.w3.org/1999/xlink" width="32px" height="32px" viewBox="0 0 32 32" version="1.1">
<g id="surface1">
<path style=" stroke:none;fill-rule:evenodd;fill:rgb(14.901961%,49.803922%,81.568629%);fill-opacity:1;" d="M 16.28125 21.761719 L 18.125 21.761719 L 18.125 23.605469 L 16.28125 23.605469 Z M 16.28125 21.199219 L 16.28125 19.355469 L 18.125 19.355469 L 18.125 21.199219 Z M 10.855469 23.84375 C 12.359375 24.828125 14.117188 25.363281 15.917969 25.378906 C 17.71875 25.394531 19.484375 24.890625 21.007812 23.929688 L 21.007812 16.75 L 15.929688 13.871094 L 10.855469 16.75 Z M 13.871094 21.761719 L 15.714844 21.761719 L 15.714844 23.605469 L 13.871094 23.605469 Z M 13.871094 19.355469 L 15.714844 19.355469 L 15.714844 21.199219 L 13.871094 21.199219 Z M 13.871094 19.355469 "/>
<path style=" stroke:none;fill-rule:evenodd;fill:rgb(14.901961%,49.803922%,81.568629%);fill-opacity:1;" d="M 8.160156 15.191406 L 8.84375 14.804688 L 15.929688 10.78125 L 23.703125 15.191406 L 23.703125 21.347656 C 24.796875 19.78125 25.378906 17.914062 25.375 16 C 25.375 10.820312 21.179688 6.621094 16 6.621094 C 10.820312 6.621094 6.621094 10.820312 6.621094 16 C 6.617188 17.832031 7.152344 19.621094 8.160156 21.148438 Z M 8.160156 15.191406 "/>
<path style=" stroke:none;fill-rule:evenodd;fill:rgb(95.294118%,73.333335%,26.666668%);fill-opacity:1;" d="M 11.148438 28.160156 C 12.0625 28.523438 13.015625 28.785156 13.992188 28.933594 L 14.328125 32 L 17.542969 32 L 17.878906 28.953125 C 18.851562 28.8125 19.808594 28.5625 20.726562 28.207031 L 22.554688 30.695312 L 25.335938 29.085938 L 24.101562 26.277344 C 24.875 25.667969 25.578125 24.972656 26.195312 24.207031 L 29.023438 25.449219 L 30.628906 22.667969 L 28.160156 20.851562 C 28.523438 19.9375 28.78125 18.984375 28.933594 18.011719 L 32 17.671875 L 32 14.457031 L 28.949219 14.125 C 28.808594 13.148438 28.558594 12.191406 28.203125 11.273438 L 30.691406 9.449219 L 29.085938 6.664062 L 26.273438 7.898438 C 25.664062 7.128906 24.96875 6.425781 24.203125 5.808594 L 25.449219 2.980469 L 22.664062 1.371094 L 20.847656 3.84375 C 19.933594 3.480469 18.980469 3.21875 18.007812 3.070312 L 17.671875 0 L 14.453125 0 L 14.121094 3.050781 C 13.144531 3.1875 12.1875 3.4375 11.269531 3.792969 L 9.445312 1.304688 L 7.703125 2.3125 L 6.660156 2.914062 L 7.703125 5.28125 L 7.894531 5.726562 L 7.703125 5.882812 C 7.003906 6.453125 6.371094 7.09375 5.804688 7.796875 L 2.976562 6.550781 L 1.367188 9.335938 L 3.839844 11.152344 C 3.476562 12.066406 3.214844 13.019531 3.066406 13.992188 L 0 14.328125 L 0 17.546875 L 3.050781 17.878906 C 3.191406 18.855469 3.441406 19.808594 3.796875 20.726562 L 1.308594 22.554688 L 2.914062 25.339844 L 5.722656 24.101562 C 6.308594 24.84375 6.972656 25.519531 7.703125 26.121094 L 7.792969 26.195312 L 7.703125 26.40625 L 6.550781 29.023438 L 7.703125 29.6875 L 9.335938 30.632812 Z M 4.9375 16 C 4.9375 13.066406 6.105469 10.253906 8.179688 8.179688 C 10.253906 6.105469 13.066406 4.941406 16 4.941406 C 22.105469 4.941406 27.058594 9.894531 27.058594 16 C 27.058594 22.109375 22.105469 27.0625 16 27.0625 C 13.066406 27.0625 10.253906 25.894531 8.179688 23.824219 C 6.105469 21.75 4.9375 18.933594 4.9375 16 Z M 4.9375 16 "/>
</g>
</svg>
