<svg width="186" height="60" viewBox="0 0 186 60" fill="none" xmlns="http://www.w3.org/2000/svg">
<path d="M179.715 59.056H5.8506C2.66308 59.056 0.0551147 56.428 0.0551147 53.216V6.49601C0.0551147 3.28401 2.66308 0.656006 5.8506 0.656006H179.715C182.903 0.656006 185.511 3.28401 185.511 6.49601V53.216C185.511 56.428 182.903 59.056 179.715 59.056Z" fill="#267FD0"/>
<path fill-rule="evenodd" clip-rule="evenodd" d="M14.2538 29.2721V13.9421C14.2538 13.0661 14.9783 12.3361 15.7027 12.3361C16.4272 12.3361 16.7169 12.4821 17.1516 12.7741L45.1148 28.2501C45.6944 28.5421 45.9841 28.9801 45.9841 29.4181C45.9841 29.8561 45.6944 30.2941 45.1148 30.5861L17.1516 46.0621C16.8618 46.2081 16.4272 46.5001 15.7027 46.5001C14.9783 46.5001 14.2538 45.7701 14.2538 44.8941V29.2721Z" fill="url(#paint0_linear_1_328)"/>
<path fill-rule="evenodd" clip-rule="evenodd" d="M32.3648 29.4181L15.413 12.3361C15.5579 12.3361 15.5579 12.3361 15.7028 12.3361C16.4272 12.3361 16.717 12.4821 17.1517 12.7741L37.7256 24.1621L32.3648 29.4181Z" fill="url(#paint1_linear_1_328)"/>
<path fill-rule="evenodd" clip-rule="evenodd" d="M37.5806 34.5279L32.3647 29.2719L37.7255 23.8699L45.1148 27.9579C45.6943 28.2499 45.9841 28.6879 45.9841 29.1259C45.9841 29.5639 45.6943 30.0019 45.1148 30.2939L37.5806 34.5279Z" fill="url(#paint2_linear_1_328)"/>
<path fill-rule="evenodd" clip-rule="evenodd" d="M15.5583 46.2081L32.3652 29.2721L37.5811 34.5281L17.1521 45.7701C16.7174 46.0621 16.4276 46.2081 15.5583 46.2081C15.7032 46.2081 15.7032 46.2081 15.5583 46.2081Z" fill="url(#paint3_linear_1_328)"/>
<path fill-rule="evenodd" clip-rule="evenodd" d="M103.07 50.15C102.345 49.566 101.766 48.544 101.476 47.96L103.794 46.938C103.939 47.23 104.229 47.668 104.519 48.106C105.098 48.69 105.968 49.274 106.837 49.274C107.706 49.274 108.72 48.836 109.3 48.106C109.735 47.376 110.024 46.646 110.024 45.624V44.748C108.286 46.938 104.664 46.646 102.635 44.31C100.462 41.974 100.462 38.032 102.635 35.696C104.808 33.506 107.996 33.214 109.879 35.258V34.236H112.343V45.186C112.343 47.96 111.328 49.566 110.024 50.588C109.155 51.318 107.851 51.61 106.692 51.61C105.388 51.464 104.084 51.026 103.07 50.15ZM163.778 50.734L166.241 44.894L161.894 34.82H164.357L167.4 41.974L170.442 34.82H172.905L166.241 50.734H163.778ZM152.042 45.186C151.317 44.456 151.027 43.434 151.027 42.412C151.027 41.536 151.317 40.66 151.897 40.076C152.911 39.054 154.36 38.616 155.954 38.616C156.968 38.616 157.837 38.762 158.562 39.2C158.562 37.448 157.113 36.718 155.954 36.718C154.939 36.718 153.925 37.302 153.491 38.324L151.317 37.448C151.752 36.426 152.911 34.528 155.809 34.528C157.258 34.528 158.706 34.966 159.576 35.988C160.445 37.01 160.735 38.178 160.735 39.784V45.916H158.272V44.894C157.982 45.332 157.402 45.624 156.968 45.916C156.388 46.208 155.664 46.354 154.939 46.354C154.07 46.208 152.766 45.916 152.042 45.186ZM74.8168 39.93C74.8168 37.01 76.9901 33.798 80.9021 33.798C84.6691 33.798 86.9873 37.01 86.9873 39.93C86.9873 42.85 84.814 46.062 80.9021 46.062C76.9901 46.062 74.8168 42.85 74.8168 39.93ZM87.8566 39.93C87.8566 37.01 90.0299 33.798 93.9419 33.798C97.709 33.798 100.027 37.01 100.027 39.93C100.027 42.85 97.8539 46.062 93.9419 46.062C90.1748 46.062 87.8566 42.85 87.8566 39.93ZM58.4445 43.142C54.8224 39.492 54.9672 33.506 58.5894 29.71C60.4729 27.812 62.7911 26.936 65.2542 26.936C67.5724 26.936 69.8906 27.812 71.6293 29.564L69.8906 31.462C67.2826 28.834 63.0809 28.98 60.6178 31.608C58.0099 34.382 58.0099 38.616 60.6178 41.39C63.2258 44.164 67.5724 44.31 70.1804 41.536C71.0497 40.66 71.3395 39.492 71.4844 38.324H65.3991V35.696H73.9475C74.0924 36.28 74.0924 37.01 74.0924 37.74C74.0924 39.93 73.223 42.12 71.7742 43.58C70.1804 45.186 67.8622 46.062 65.544 46.062C62.936 45.916 60.3281 45.04 58.4445 43.142ZM119.732 44.164C117.559 41.828 117.559 37.886 119.732 35.404C121.905 33.068 125.527 33.068 127.556 35.404C128.28 36.134 128.715 37.156 129.149 38.178L121.181 41.536C121.615 42.558 122.63 43.434 124.078 43.434C125.382 43.434 126.252 42.996 127.121 41.682L129.294 43.142C129.005 43.434 128.715 43.726 128.57 44.018C126.107 46.5 121.905 46.5 119.732 44.164ZM134.8 45.916V29.71H140.016C143.059 29.71 145.522 31.9 145.522 34.528C145.522 37.156 143.348 39.346 140.596 39.346H137.408V45.77H134.8V45.916ZM146.971 45.916V29.71H149.434V45.916H146.971ZM114.226 45.624V27.52H116.834V45.624H114.226ZM158.417 41.098C157.837 40.66 156.968 40.514 156.099 40.514C154.36 40.514 153.346 41.39 153.346 42.412C153.346 43.434 154.36 44.018 155.374 44.018C156.823 44.018 158.417 42.85 158.417 41.098ZM84.2345 39.93C84.2345 38.178 83.0754 36.28 80.9021 36.28C78.7287 36.28 77.5696 38.178 77.5696 39.93C77.5696 41.682 78.7287 43.58 80.9021 43.58C82.9305 43.58 84.2345 41.682 84.2345 39.93ZM97.2743 39.93C97.2743 38.178 96.1152 36.28 93.9419 36.28C91.7686 36.28 90.6095 38.178 90.6095 39.93C90.6095 41.682 91.7686 43.58 93.9419 43.58C96.1152 43.58 97.2743 41.682 97.2743 39.93ZM110.169 40.952C110.169 40.806 110.169 40.66 110.314 40.514C110.314 40.368 110.314 40.076 110.314 39.93C110.314 39.784 110.314 39.492 110.314 39.346V39.2C110.314 39.054 110.169 38.762 110.169 38.616C109.735 37.156 108.431 36.134 107.127 36.134C105.388 36.134 103.939 37.886 103.939 39.784C103.939 41.828 105.388 43.434 107.272 43.434C108.431 43.58 109.59 42.558 110.169 40.952ZM120.746 39.638L126.107 37.302C125.527 36.28 124.658 35.988 123.934 35.988C121.76 36.134 120.456 38.47 120.746 39.638ZM142.914 34.674C142.914 33.214 141.755 32.192 140.161 32.192H137.263V37.302H140.306C141.755 37.302 142.914 36.134 142.914 34.674Z" fill="white"/>
<path fill-rule="evenodd" clip-rule="evenodd" d="M165.663 47.8162H165.516V47.6681H165.663H165.516V47.8162H165.663Z" fill="white"/>
<path fill-rule="evenodd" clip-rule="evenodd" d="M165.952 47.8162C165.952 47.6681 165.952 47.6681 165.952 47.8162C165.805 47.6681 165.805 47.6681 165.952 47.8162C165.805 47.8162 165.805 47.8162 165.952 47.8162ZM165.952 47.6681C165.952 47.8162 165.952 47.8162 165.952 47.6681C165.805 47.8162 165.952 47.8162 165.952 47.6681C165.952 47.6681 165.805 47.6681 165.952 47.6681Z" fill="white"/>
<path fill-rule="evenodd" clip-rule="evenodd" d="M166.098 47.6681H165.951H166.098V47.8162V47.6681Z" fill="white"/>
<path d="M56.4157 15.4021C56.4157 12.7741 58.2993 11.1681 60.6175 11.1681C62.2112 11.1681 63.2254 11.8981 63.9499 12.9201L62.7908 13.6501C62.3561 13.0661 61.6317 12.6281 60.6175 12.6281C59.0237 12.6281 57.8646 13.7961 57.8646 15.5481C57.8646 17.3001 59.0237 18.4681 60.6175 18.4681C61.4868 18.4681 62.2112 18.0301 62.501 17.7381V16.4241H60.1828V15.1101H64.0947V18.1761C63.3703 19.0521 62.2112 19.6361 60.7623 19.6361C58.2992 19.6361 56.4157 17.8841 56.4157 15.4021Z" fill="white"/>
<path d="M65.8334 19.4901V11.3141H71.3391V12.6281H67.1374V14.6721H71.1942V15.9861H67.1374V18.3221H71.3391V19.6361L65.8334 19.4901Z" fill="white"/>
<path d="M75.3962 19.4901V12.6281H72.9331V11.3141H79.3081V12.6281H76.8451V19.4901H75.3962Z" fill="white"/>
<path d="M84.2344 19.4901V11.3141H85.6833V19.4901H84.2344Z" fill="white"/>
<path d="M89.5952 19.4901V12.6281H87.1321V11.3141H93.5072V12.6281H91.0441V19.4901H89.5952Z" fill="white"/>
<path d="M98.1437 15.4021C98.1437 12.9201 99.8824 11.1681 102.345 11.1681C104.809 11.1681 106.547 12.9201 106.547 15.4021C106.547 17.8841 104.809 19.6361 102.345 19.6361C99.8824 19.6361 98.1437 17.7381 98.1437 15.4021ZM104.953 15.4021C104.953 13.6501 103.939 12.4821 102.201 12.4821C100.607 12.4821 99.4477 13.7961 99.4477 15.4021C99.4477 17.1541 100.462 18.3221 102.201 18.3221C103.939 18.3221 104.953 17.0081 104.953 15.4021Z" fill="white"/>
<path d="M113.792 19.4901L109.59 13.6501V19.4901H108.141V11.3141H109.59L113.792 17.0081V11.3141H115.24V19.4901H113.792Z" fill="white"/>
<defs>
<linearGradient id="paint0_linear_1_328" x1="23.6243" y1="10.2535" x2="31.8533" y2="43.7913" gradientUnits="userSpaceOnUse">
<stop stop-color="#006884"/>
<stop offset="1" stop-color="#8AD1D0"/>
</linearGradient>
<linearGradient id="paint1_linear_1_328" x1="13.7333" y1="15.028" x2="35.9135" y2="26.9274" gradientUnits="userSpaceOnUse">
<stop stop-color="#24BBB6"/>
<stop offset="1" stop-color="#DBE692"/>
</linearGradient>
<linearGradient id="paint2_linear_1_328" x1="39.1663" y1="35.1413" x2="39.1663" y2="23.5366" gradientUnits="userSpaceOnUse">
<stop stop-color="#FCC072"/>
<stop offset="1" stop-color="#F58A5B"/>
</linearGradient>
<linearGradient id="paint3_linear_1_328" x1="18.0137" y1="49.229" x2="35.611" y2="31.4564" gradientUnits="userSpaceOnUse">
<stop stop-color="#712B8F"/>
<stop offset="1" stop-color="#EA1D27"/>
</linearGradient>
</defs>
</svg>
