<svg width="11" height="12" viewBox="0 0 11 12" fill="none" xmlns="http://www.w3.org/2000/svg">
<path fill-rule="evenodd" clip-rule="evenodd" d="M5.33309 0.666504C3.8842 0.666504 3.70376 0.672726 3.13398 0.699393C1.1962 0.788282 0.120645 1.86295 0.0317559 3.80073C0.00597808 4.3705 -0.000244141 4.55184 -0.000244141 5.99984C-0.000244141 7.44873 0.00597808 7.63006 0.0317559 8.19895C0.120645 10.1358 1.1962 11.2123 3.13398 11.3012C3.70376 11.3269 3.8842 11.3332 5.33309 11.3332C6.78198 11.3332 6.96331 11.3269 7.53309 11.3012C9.46731 11.2123 10.5473 10.1376 10.6344 8.19895C10.6602 7.63006 10.6664 7.44873 10.6664 5.99984C10.6664 4.55184 10.6602 4.3705 10.6344 3.80073C10.5473 1.86562 9.47087 0.787393 7.53309 0.699393C6.96331 0.672726 6.78198 0.666504 5.33309 0.666504ZM5.33302 1.62871C6.75702 1.62871 6.92591 1.63404 7.48858 1.65982C8.9348 1.7256 9.60858 2.41093 9.67524 3.8456C9.70013 4.40826 9.70547 4.57626 9.70547 6.00026C9.70547 7.42426 9.70013 7.59315 9.67524 8.15493C9.60858 9.58871 8.93569 10.2758 7.48858 10.3416C6.92591 10.3665 6.75791 10.3727 5.33302 10.3727C3.90902 10.3727 3.74013 10.3674 3.17836 10.3416C1.72947 10.2749 1.05836 9.58693 0.991689 8.15493C0.9668 7.59315 0.960577 7.42426 0.960577 6.00026C0.960577 4.57626 0.9668 4.40737 0.991689 3.8456C1.05747 2.41004 1.73124 1.72471 3.17836 1.65893C3.74013 1.63315 3.90902 1.62871 5.33302 1.62871ZM2.59431 5.99989C2.59431 4.487 3.82098 3.26122 5.33298 3.26122C6.84498 3.26122 8.07164 4.48789 8.07164 5.99989C8.07164 7.51278 6.84498 8.73855 5.33298 8.73855C3.82098 8.73855 2.59431 7.51278 2.59431 5.99989ZM5.33325 7.77794C4.35103 7.77794 3.55547 6.98239 3.55547 6.00016C3.55547 5.01883 4.35103 4.22238 5.33325 4.22238C6.31459 4.22238 7.11192 5.01794 7.11192 6.00016C7.11192 6.98239 6.31459 7.77794 5.33325 7.77794ZM7.53942 3.15376C7.53942 2.79998 7.82653 2.51376 8.17942 2.51376C8.53409 2.51376 8.82031 2.79998 8.82031 3.15376C8.82031 3.50754 8.5332 3.79376 8.17942 3.79376C7.82564 3.79376 7.53942 3.50665 7.53942 3.15376Z" fill="#267FD0"/>
</svg>
