<svg width="224" height="71" viewBox="0 0 224 71" fill="none" xmlns="http://www.w3.org/2000/svg">
<path d="M216.858 70.9734H7.81279C3.98029 70.9734 0.844604 67.8136 0.844604 63.9517V7.77805C0.844604 3.91611 3.98029 0.756348 7.81279 0.756348H216.858C220.691 0.756348 223.826 3.91611 223.826 7.77805V63.9517C223.826 67.8136 220.691 70.9734 216.858 70.9734Z" fill="white"/>
<path fill-rule="evenodd" clip-rule="evenodd" d="M17.9167 35.1627V16.7308C17.9167 15.6775 18.7877 14.7998 19.6587 14.7998C20.5298 14.7998 20.8782 14.9753 21.4008 15.3264L55.0223 33.9339C55.7191 34.285 56.0675 34.8117 56.0675 35.3383C56.0675 35.8649 55.7191 36.3915 55.0223 36.7426L21.4008 55.3501C21.0524 55.5257 20.5298 55.8768 19.6587 55.8768C18.7877 55.8768 17.9167 54.999 17.9167 53.9458V35.1627Z" fill="url(#paint0_linear_1_849)"/>
<path fill-rule="evenodd" clip-rule="evenodd" d="M39.6924 35.3383L19.3105 14.7998C19.4847 14.7998 19.4847 14.7998 19.6589 14.7998C20.5299 14.7998 20.8783 14.9753 21.4009 15.3264L46.138 29.0188L39.6924 35.3383Z" fill="url(#paint1_linear_1_849)"/>
<path fill-rule="evenodd" clip-rule="evenodd" d="M45.9635 41.4826L39.6922 35.163L46.1378 28.668L55.0222 33.5832C55.719 33.9342 56.0674 34.4609 56.0674 34.9875C56.0674 35.5141 55.719 36.0408 55.0222 36.3918L45.9635 41.4826Z" fill="url(#paint2_linear_1_849)"/>
<path fill-rule="evenodd" clip-rule="evenodd" d="M19.4852 55.526L39.6929 35.1631L45.9643 41.4826L21.4014 54.9994C20.8788 55.3505 20.5304 55.526 19.4852 55.526C19.6594 55.526 19.6594 55.526 19.4852 55.526Z" fill="url(#paint3_linear_1_849)"/>
<path fill-rule="evenodd" clip-rule="evenodd" d="M124.704 60.2658C123.833 59.5636 123.136 58.3348 122.788 57.6326L125.575 56.4038C125.749 56.7549 126.098 57.2815 126.446 57.8082C127.143 58.5103 128.188 59.2125 129.233 59.2125C130.279 59.2125 131.498 58.6859 132.195 57.8082C132.717 56.9304 133.066 56.0527 133.066 54.8239V53.7707C130.975 56.4038 126.62 56.0527 124.181 53.2441C121.568 50.4354 121.568 45.6957 124.181 42.887C126.794 40.2539 130.627 39.9028 132.892 42.3604V41.1316H135.853V54.2973C135.853 57.6326 134.634 59.5636 133.066 60.7924C132.021 61.6701 130.453 62.0212 129.059 62.0212C127.491 61.8456 125.923 61.319 124.704 60.2658ZM197.696 60.9679L200.657 53.9462L195.431 41.8338H198.393L202.051 50.4354L205.709 41.8338H208.671L200.657 60.9679H197.696ZM183.585 54.2973C182.714 53.4196 182.366 52.1908 182.366 50.962C182.366 49.9087 182.714 48.8555 183.411 48.1533C184.63 46.9245 186.372 46.3979 188.289 46.3979C189.508 46.3979 190.553 46.5734 191.424 47.1001C191.424 44.9936 189.682 44.1158 188.289 44.1158C187.069 44.1158 185.85 44.818 185.327 46.0468L182.714 44.9936C183.237 43.7648 184.63 41.4827 188.114 41.4827C189.856 41.4827 191.599 42.0093 192.644 43.2381C193.689 44.4669 194.037 45.8713 194.037 47.8022V55.175H191.076V53.9462C190.728 54.4729 190.031 54.8239 189.508 55.175C188.811 55.5261 187.94 55.7016 187.069 55.7016C186.024 55.5261 184.456 55.175 183.585 54.2973ZM90.7341 47.9778C90.7341 44.4669 93.3472 40.605 98.0507 40.605C102.58 40.605 105.367 44.4669 105.367 47.9778C105.367 51.4886 102.754 55.3506 98.0507 55.3506C93.3472 55.3506 90.7341 51.4886 90.7341 47.9778ZM106.413 47.9778C106.413 44.4669 109.026 40.605 113.729 40.605C118.258 40.605 121.046 44.4669 121.046 47.9778C121.046 51.4886 118.433 55.3506 113.729 55.3506C109.2 55.3506 106.413 51.4886 106.413 47.9778ZM71.049 51.8397C66.6939 47.4511 66.8681 40.2539 71.2232 35.6898C73.4879 33.4078 76.2751 32.3545 79.2366 32.3545C82.0239 32.3545 84.8112 33.4077 86.9016 35.5143L84.8112 37.7963C81.6755 34.6365 76.6236 34.8121 73.6621 37.9719C70.5264 41.3072 70.5264 46.3979 73.6621 49.7332C76.7978 53.0685 82.0239 53.2441 85.1596 49.9087C86.2048 48.8555 86.5532 47.4511 86.7274 46.0468H79.4108V42.887H89.6889C89.8631 43.5892 89.8631 44.4669 89.8631 45.3446C89.8631 47.9778 88.8179 50.6109 87.0758 52.3663C85.1596 54.2973 82.3723 55.3506 79.585 55.3506C76.4493 55.175 73.3137 54.1218 71.049 51.8397ZM144.738 53.0685C142.124 50.2598 142.124 45.5202 144.738 42.536C147.351 39.7273 151.706 39.7273 154.145 42.536C155.016 43.4137 155.538 44.6425 156.061 45.8713L146.48 49.9087C147.002 51.1375 148.222 52.1908 149.964 52.1908C151.532 52.1908 152.577 51.6642 153.622 50.0843L156.235 51.8397C155.887 52.1908 155.538 52.5419 155.364 52.893C152.403 55.8772 147.351 55.8772 144.738 53.0685ZM162.855 55.175V35.6898H169.126C172.784 35.6898 175.746 38.3229 175.746 41.4827C175.746 44.6425 173.133 47.2756 169.823 47.2756H165.99V54.9995H162.855V55.175ZM177.488 55.175V35.6898H180.449V55.175H177.488ZM138.118 54.8239V33.0567H141.253V54.8239H138.118ZM191.25 49.3821C190.553 48.8555 189.508 48.6799 188.463 48.6799C186.372 48.6799 185.153 49.7332 185.153 50.962C185.153 52.1908 186.372 52.893 187.592 52.893C189.334 52.893 191.25 51.4886 191.25 49.3821ZM102.057 47.9778C102.057 45.8713 100.664 43.5892 98.0507 43.5892C95.4376 43.5892 94.044 45.8713 94.044 47.9778C94.044 50.0843 95.4376 52.3663 98.0507 52.3663C100.49 52.3663 102.057 50.0843 102.057 47.9778ZM117.736 47.9778C117.736 45.8713 116.342 43.5892 113.729 43.5892C111.116 43.5892 109.722 45.8713 109.722 47.9778C109.722 50.0843 111.116 52.3663 113.729 52.3663C116.342 52.3663 117.736 50.0843 117.736 47.9778ZM133.24 49.2066C133.24 49.031 133.24 48.8555 133.414 48.6799C133.414 48.5044 133.414 48.1533 133.414 47.9778C133.414 47.8022 133.414 47.4511 133.414 47.2756V47.1001C133.414 46.9245 133.24 46.5734 133.24 46.3979C132.717 44.6425 131.15 43.4137 129.582 43.4137C127.491 43.4137 125.749 45.5202 125.749 47.8022C125.749 50.2598 127.491 52.1908 129.756 52.1908C131.15 52.3663 132.543 51.1375 133.24 49.2066ZM145.957 47.6267L152.403 44.818C151.706 43.5892 150.66 43.2381 149.789 43.2381C147.176 43.4137 145.609 46.2224 145.957 47.6267ZM172.61 41.6582C172.61 39.9028 171.217 38.674 169.3 38.674H165.816V44.818H169.475C171.217 44.818 172.61 43.4137 172.61 41.6582Z" fill="#1F1F1F"/>
<path fill-rule="evenodd" clip-rule="evenodd" d="M199.962 57.4585H199.786V57.2812H199.962H199.786V57.4585H199.962Z" fill="#1F1F1F"/>
<path fill-rule="evenodd" clip-rule="evenodd" d="M200.31 57.4585C200.31 57.2812 200.31 57.2812 200.31 57.4585C200.134 57.2812 200.134 57.2812 200.31 57.4585C200.134 57.4585 200.134 57.4585 200.31 57.4585ZM200.31 57.2812C200.31 57.4585 200.31 57.4585 200.31 57.2812C200.134 57.4585 200.31 57.4585 200.31 57.2812C200.31 57.2812 200.134 57.2812 200.31 57.2812Z" fill="#1F1F1F"/>
<path fill-rule="evenodd" clip-rule="evenodd" d="M200.485 57.2812H200.309H200.485V57.4585V57.2812Z" fill="#1F1F1F"/>
<path d="M68.6099 18.4862C68.6099 15.3265 70.8745 13.3955 73.6618 13.3955C75.5781 13.3955 76.7975 14.2732 77.6685 15.502L76.2749 16.3797C75.7523 15.6776 74.8812 15.1509 73.6618 15.1509C71.7456 15.1509 70.3519 16.5553 70.3519 18.6618C70.3519 20.7683 71.7456 22.1726 73.6618 22.1726C74.707 22.1726 75.5781 21.646 75.9265 21.2949V19.715H73.1392V18.1352H77.8427V21.8215C76.9717 22.8748 75.578 23.577 73.836 23.577C70.8745 23.577 68.6099 21.4705 68.6099 18.4862Z" fill="#1F1F1F"/>
<path d="M79.9333 23.4012V13.5708H86.5531V15.1507H81.5011V17.6083H86.3789V19.1882H81.5011V21.9968H86.5531V23.5767L79.9333 23.4012Z" fill="#1F1F1F"/>
<path d="M91.4308 23.4012V15.1507H88.4694V13.5708H96.1344V15.1507H93.1729V23.4012H91.4308Z" fill="#1F1F1F"/>
<path d="M102.058 23.4012V13.5708H103.8V23.4012H102.058Z" fill="#1F1F1F"/>
<path d="M108.503 23.4012V15.1507H105.542V13.5708H113.207V15.1507H110.245V23.4012H108.503Z" fill="#1F1F1F"/>
<path d="M118.781 18.4862C118.781 15.502 120.872 13.3955 123.833 13.3955C126.795 13.3955 128.885 15.502 128.885 18.4862C128.885 21.4705 126.795 23.577 123.833 23.577C120.872 23.577 118.781 21.2949 118.781 18.4862ZM126.969 18.4862C126.969 16.3797 125.749 14.9754 123.659 14.9754C121.743 14.9754 120.349 16.5553 120.349 18.4862C120.349 20.5927 121.569 21.9971 123.659 21.9971C125.749 21.9971 126.969 20.4172 126.969 18.4862Z" fill="#1F1F1F"/>
<path d="M137.596 23.4012L132.544 16.3795V23.4012H130.802V13.5708H132.544L137.596 20.417V13.5708H139.338V23.4012H137.596Z" fill="#1F1F1F"/>
<defs>
<linearGradient id="paint0_linear_1_849" x1="29.1832" y1="12.2959" x2="39.0774" y2="52.6199" gradientUnits="userSpaceOnUse">
<stop stop-color="#006884"/>
<stop offset="1" stop-color="#8AD1D0"/>
</linearGradient>
<linearGradient id="paint1_linear_1_849" x1="17.2909" y1="18.0365" x2="43.9592" y2="32.3436" gradientUnits="userSpaceOnUse">
<stop stop-color="#24BBB6"/>
<stop offset="1" stop-color="#DBE692"/>
</linearGradient>
<linearGradient id="paint2_linear_1_849" x1="47.8701" y1="42.22" x2="47.8701" y2="28.2672" gradientUnits="userSpaceOnUse">
<stop stop-color="#FCC072"/>
<stop offset="1" stop-color="#F58A5B"/>
</linearGradient>
<linearGradient id="paint3_linear_1_849" x1="22.4374" y1="59.1582" x2="43.5955" y2="37.7894" gradientUnits="userSpaceOnUse">
<stop stop-color="#712B8F"/>
<stop offset="1" stop-color="#EA1D27"/>
</linearGradient>
</defs>
</svg>
