<svg width="224" height="71" viewBox="0 0 224 71" fill="none" xmlns="http://www.w3.org/2000/svg">
<path d="M216.186 70.7428H7.46193C3.63532 70.7428 0.504456 67.5999 0.504456 63.7585V7.88463C0.504456 4.0433 3.63532 0.900391 7.46193 0.900391H216.186C220.013 0.900391 223.144 4.0433 223.144 7.88463V63.7585C223.144 67.5999 220.013 70.7428 216.186 70.7428Z" fill="white"/>
<path d="M47.4673 35.4719C47.4673 30.0591 51.9896 27.44 52.1636 27.2654C49.5545 23.5987 45.7279 23.0749 44.3364 22.9003C41.0316 22.5511 37.7268 24.821 36.1614 24.821C34.422 24.821 31.8129 22.9003 29.03 22.9003C25.3773 22.9003 22.0725 24.9956 20.1592 28.3131C16.3326 34.9481 19.1155 44.726 22.7682 50.1388C24.6815 52.7579 26.7688 55.7262 29.5518 55.5516C32.3348 55.377 33.3784 53.8055 36.6832 53.8055C39.988 53.8055 40.8577 55.5516 43.8146 55.5516C46.7715 55.5516 48.6848 52.9325 50.4242 50.3134C52.5115 47.3451 53.3811 44.3768 53.3811 44.2022C53.2072 44.0276 47.4673 41.9323 47.4673 35.4719Z" fill="#1F1F1F"/>
<path d="M42.0756 19.4086C43.4671 17.4879 44.5107 15.0434 44.3368 12.4243C42.2496 12.5989 39.4666 13.8212 38.0751 15.7418C36.6836 17.3133 35.466 19.9324 35.8139 22.3769C38.0751 22.5515 40.5102 21.1546 42.0756 19.4086Z" fill="#1F1F1F"/>
<path d="M87.125 55.2024H83.2984L81.2111 48.5674H73.9058L71.9925 55.2024H68.3398L75.6451 32.6782H80.1675L87.125 55.2024ZM80.5154 45.7737L78.6021 39.8371C78.4281 39.3132 78.0803 37.7418 77.3845 35.6465C77.2106 36.5196 76.8627 38.091 76.3409 39.8371L74.4276 45.7737H80.5154Z" fill="#1F1F1F"/>
<path d="M105.736 46.9965C105.736 49.7902 105.04 51.8855 103.475 53.6315C102.084 55.0284 100.518 55.7268 98.4309 55.7268C96.3436 55.7268 94.7782 55.0284 93.9085 53.4569V62.0126H90.2559V44.552C90.2559 42.806 90.2558 41.0599 90.0819 39.1393H93.2128L93.3867 41.7583C94.6043 39.8377 96.3436 38.79 98.7788 38.79C100.692 38.79 102.258 39.4885 103.475 41.0599C105.04 42.4568 105.736 44.3774 105.736 46.9965ZM102.084 46.9965C102.084 45.4251 101.736 44.0282 101.04 43.1552C100.344 42.1076 99.3006 41.5837 97.9091 41.5837C97.0394 41.5837 96.1697 41.9329 95.474 42.4568C94.7782 42.9806 94.2564 43.8536 94.0825 44.7266C93.9085 45.2505 93.9085 45.5997 93.9085 45.7743V48.568C93.9085 49.7902 94.2564 50.6632 94.9522 51.5363C95.6479 52.4093 96.6915 52.7585 97.7351 52.7585C99.1266 52.7585 100.17 52.2347 100.866 51.1871C101.736 50.1394 102.084 48.7426 102.084 46.9965Z" fill="#1F1F1F"/>
<path d="M124.348 46.9965C124.348 49.7902 123.652 51.8855 122.087 53.6315C120.695 55.0284 119.13 55.7268 117.043 55.7268C114.955 55.7268 113.39 55.0284 112.52 53.4569V62.0126H108.867V44.552C108.867 42.806 108.867 41.0599 108.694 39.1393H111.824L111.998 41.7583C113.216 39.8377 114.955 38.79 117.39 38.79C119.304 38.79 120.869 39.4885 122.087 41.0599C123.652 42.4568 124.348 44.3774 124.348 46.9965ZM120.695 46.9965C120.695 45.4251 120.347 44.0282 119.652 43.1552C118.956 42.1076 117.912 41.5837 116.521 41.5837C115.651 41.5837 114.781 41.9329 114.086 42.4568C113.39 42.9806 112.868 43.8536 112.694 44.7266C112.52 45.2505 112.52 45.5997 112.52 45.7743V48.568C112.52 49.7902 112.868 50.6632 113.564 51.5363C114.26 52.4093 115.303 52.7585 116.347 52.7585C117.738 52.7585 118.782 52.2347 119.478 51.1871C120.347 50.1394 120.695 48.7426 120.695 46.9965Z" fill="#1F1F1F"/>
<path d="M145.22 48.9169C145.22 50.8375 144.524 52.409 143.306 53.6312C141.915 55.0281 139.828 55.5519 137.219 55.5519C134.783 55.5519 132.87 55.0281 131.479 54.155L132.348 51.1867C133.914 52.0598 135.653 52.5836 137.566 52.5836C138.958 52.5836 140.001 52.2344 140.697 51.7106C141.393 51.0121 141.741 50.3137 141.741 49.2661C141.741 48.393 141.393 47.52 140.871 46.9962C140.175 46.2978 139.132 45.774 137.74 45.2501C133.74 43.8533 131.826 41.5834 131.826 38.7897C131.826 36.8691 132.522 35.4722 133.914 34.25C135.305 33.0277 137.045 32.5039 139.48 32.5039C141.567 32.5039 143.132 32.8531 144.524 33.5515L143.654 36.5198C142.437 35.8214 141.045 35.4722 139.306 35.4722C138.088 35.4722 137.045 35.8214 136.349 36.3452C135.827 36.8691 135.479 37.5675 135.479 38.4405C135.479 39.3135 135.827 40.012 136.523 40.7104C137.045 41.2342 138.262 41.758 139.828 42.4564C141.741 43.1549 143.132 44.2025 144.176 45.2501C144.698 46.1232 145.22 47.3454 145.22 48.9169Z" fill="#1F1F1F"/>
<path d="M157.047 41.7579H153.047V49.6151C153.047 51.5358 153.742 52.5834 155.134 52.5834C155.83 52.5834 156.351 52.5834 156.699 52.4088L156.873 55.2025C156.178 55.5517 155.308 55.5517 154.09 55.5517C152.699 55.5517 151.481 55.2025 150.785 54.3295C149.916 53.4565 149.568 52.0596 149.568 49.9644V41.7579H147.133V38.9642H149.568V35.9959L153.047 34.9482V38.9642H157.047V41.7579Z" fill="#1F1F1F"/>
<path d="M174.963 46.9963C174.963 49.4408 174.268 51.5361 172.876 53.1075C171.311 54.679 169.397 55.552 166.962 55.552C164.527 55.552 162.614 54.679 161.222 53.1075C159.831 51.5361 159.135 49.6154 159.135 47.1709C159.135 44.7264 159.831 42.6312 161.396 41.0597C162.788 39.4883 164.875 38.6152 167.31 38.6152C169.745 38.6152 171.659 39.4883 173.05 41.0597C174.268 42.6312 174.963 44.5518 174.963 46.9963ZM171.137 47.1709C171.137 45.5995 170.789 44.3772 170.093 43.3296C169.397 42.1074 168.18 41.4089 166.788 41.4089C165.397 41.4089 164.179 42.1074 163.484 43.3296C162.788 44.3772 162.44 45.7741 162.44 47.1709C162.44 48.7424 162.788 49.9646 163.484 51.0123C164.179 52.2345 165.397 52.9329 166.788 52.9329C168.18 52.9329 169.224 52.2345 170.093 51.0123C170.789 49.9646 171.137 48.5678 171.137 47.1709Z" fill="#1F1F1F"/>
<path d="M186.617 42.1076C186.269 42.1076 185.921 41.933 185.399 41.933C184.182 41.933 183.138 42.4569 182.442 43.3299C181.921 44.2029 181.573 45.2505 181.573 46.4728V55.0285H177.92V43.8537C177.92 41.933 177.92 40.3616 177.746 38.7901H180.877L181.051 41.933H181.225C181.573 40.8854 182.268 40.0124 182.964 39.3139C183.834 38.7901 184.704 38.4409 185.573 38.4409C185.921 38.4409 186.269 38.4409 186.443 38.4409V42.1076H186.617Z" fill="#1F1F1F"/>
<path d="M202.619 46.2979C202.619 46.9963 202.619 47.5201 202.445 47.8694H191.661C191.661 49.4408 192.183 50.663 193.226 51.5361C194.096 52.2345 195.313 52.7583 196.705 52.7583C198.27 52.7583 199.836 52.5837 201.053 52.0599L201.575 54.5044C200.01 55.2028 198.27 55.552 196.183 55.552C193.748 55.552 191.661 54.8536 190.269 53.2821C188.878 51.8853 188.182 49.79 188.182 47.3455C188.182 44.901 188.878 42.8058 190.095 41.2343C191.487 39.4883 193.4 38.6152 195.835 38.6152C198.096 38.6152 200.01 39.4883 201.053 41.2343C202.271 42.6312 202.619 44.3772 202.619 46.2979ZM199.314 45.4249C199.314 44.3772 199.14 43.5042 198.618 42.6312C197.923 41.5835 197.053 41.0597 195.835 41.0597C194.618 41.0597 193.748 41.5835 193.052 42.4566C192.53 43.155 192.183 44.2026 192.009 45.2503H199.314V45.4249Z" fill="#1F1F1F"/>
<path d="M79.4721 18.8847C79.4721 20.8053 78.9503 22.3768 77.7328 23.4244C76.6892 24.2974 75.1237 24.8213 73.0365 24.8213C71.9929 24.8213 71.1232 24.8213 70.4274 24.6467V13.8211C71.2971 13.6465 72.3407 13.6465 73.5583 13.6465C75.4716 13.6465 76.8631 13.9957 77.9067 14.8687C78.7764 15.7418 79.4721 17.1386 79.4721 18.8847ZM77.5588 18.8847C77.5588 17.6624 77.211 16.6148 76.5152 15.9164C75.8195 15.2179 74.7758 14.8687 73.5583 14.8687C73.0365 14.8687 72.5147 14.8687 72.1668 15.0433V23.2498C72.3407 23.2498 72.8625 23.2498 73.3844 23.2498C74.7758 23.2498 75.8195 22.9006 76.5152 22.2022C77.211 21.5038 77.5588 20.2815 77.5588 18.8847Z" fill="#1F1F1F"/>
<path d="M89.2124 20.631C89.2124 21.8532 88.8645 22.9009 88.1688 23.5993C87.473 24.4723 86.4294 24.8215 85.2119 24.8215C83.9943 24.8215 83.1246 24.4723 82.4289 23.5993C81.7331 22.9009 81.3853 21.8532 81.3853 20.631C81.3853 19.4087 81.7331 18.3611 82.4289 17.6627C83.1246 16.7896 84.1683 16.4404 85.3858 16.4404C86.6034 16.4404 87.473 16.7896 88.1688 17.6627C88.8645 18.3611 89.2124 19.4087 89.2124 20.631ZM87.473 20.631C87.473 19.9325 87.2991 19.2341 86.9512 18.7103C86.6034 18.0119 86.0816 17.8373 85.3858 17.8373C84.6901 17.8373 84.1682 18.1865 83.8204 18.7103C83.4725 19.2341 83.2986 19.9325 83.2986 20.631C83.2986 21.3294 83.4725 22.0278 83.8204 22.5516C84.1682 23.2501 84.6901 23.4247 85.3858 23.4247C86.0816 23.4247 86.6034 23.0755 86.9512 22.377C87.2991 22.0278 87.473 21.3294 87.473 20.631Z" fill="#1F1F1F"/>
<path d="M102.606 16.6152L100.17 24.6471H98.6051L97.5614 21.155C97.2136 20.282 97.0396 19.4089 96.8657 18.5359C96.6918 19.4089 96.5178 20.282 96.1699 21.155L95.1263 24.6471H93.5609L90.9518 16.6152H92.6912L93.5609 20.4566C93.7348 21.3296 93.9088 22.2026 94.0827 23.0757C94.2566 22.3772 94.4306 21.5042 94.7785 20.4566L95.8221 16.6152H97.2136L98.2572 20.282C98.6051 21.155 98.779 22.028 98.9529 22.901C99.1269 22.028 99.3008 21.155 99.4747 20.282L100.518 16.6152H102.606Z" fill="#1F1F1F"/>
<path d="M111.65 24.6467H109.911V20.107C109.911 18.7101 109.389 18.0117 108.345 18.0117C107.823 18.0117 107.476 18.1863 107.128 18.5355C106.78 18.8847 106.606 19.4085 106.606 19.9323V24.6467H104.867V18.8847C104.867 18.1863 104.867 17.4879 104.867 16.6148H106.432V17.8371C106.606 17.4879 106.954 17.1387 107.302 16.7894C107.823 16.4402 108.345 16.2656 108.867 16.2656C109.563 16.2656 110.259 16.4402 110.78 16.9641C111.476 17.4879 111.65 18.3609 111.65 19.5831V24.6467Z" fill="#1F1F1F"/>
<path d="M116.521 24.6463H114.781V12.9478H116.521V24.6463Z" fill="#1F1F1F"/>
<path d="M126.957 20.631C126.957 21.8532 126.609 22.9009 125.914 23.5993C125.218 24.4723 124.174 24.8215 122.957 24.8215C121.739 24.8215 120.869 24.4723 120.174 23.5993C119.478 22.9009 119.13 21.8532 119.13 20.631C119.13 19.4087 119.478 18.3611 120.174 17.6627C120.869 16.9642 121.913 16.4404 123.131 16.4404C124.348 16.4404 125.218 16.7896 125.914 17.6627C126.609 18.3611 126.957 19.4087 126.957 20.631ZM125.218 20.631C125.218 19.9325 125.044 19.2341 124.696 18.7103C124.348 18.0119 123.826 17.8373 123.131 17.8373C122.435 17.8373 121.913 18.1865 121.565 18.7103C121.217 19.2341 121.043 19.9325 121.043 20.631C121.043 21.3294 121.217 22.0278 121.565 22.5516C121.913 23.2501 122.435 23.4247 123.131 23.4247C123.826 23.4247 124.348 23.0755 124.696 22.377C125.044 22.0278 125.218 21.3294 125.218 20.631Z" fill="#1F1F1F"/>
<path d="M135.479 24.6469H133.914L133.74 23.7739C133.218 24.4723 132.349 24.8215 131.479 24.8215C130.783 24.8215 130.087 24.6469 129.74 24.1231C129.392 23.5993 129.044 23.0755 129.044 22.5516C129.044 21.504 129.392 20.8056 130.261 20.2818C131.131 19.7579 132.175 19.5833 133.74 19.5833V19.4087C133.74 18.3611 133.218 17.8373 132.175 17.8373C131.305 17.8373 130.783 18.0119 130.087 18.3611L129.74 17.1389C130.435 16.615 131.305 16.4404 132.523 16.4404C134.61 16.4404 135.653 17.4881 135.653 19.7579V22.7262C135.479 23.5993 135.479 24.1231 135.479 24.6469ZM133.74 21.8532V20.631C131.827 20.631 130.783 21.1548 130.783 22.2024C130.783 22.5516 130.957 22.9009 131.131 23.0755C131.305 23.2501 131.653 23.4247 132.001 23.4247C132.349 23.4247 132.696 23.2501 133.044 23.0755C133.392 22.9009 133.566 22.5516 133.74 22.2024C133.74 22.2024 133.74 22.0278 133.74 21.8532Z" fill="#1F1F1F"/>
<path d="M145.568 24.647H144.003V23.4248C143.481 24.4724 142.611 24.8217 141.394 24.8217C140.35 24.8217 139.654 24.4724 138.959 23.774C138.263 23.0756 138.089 22.028 138.089 20.8057C138.089 19.5835 138.437 18.5358 139.133 17.6628C139.828 16.9644 140.698 16.6152 141.568 16.6152C142.611 16.6152 143.307 16.9644 143.829 17.6628V13.123H145.568V22.5518C145.568 23.2502 145.568 23.9486 145.568 24.647ZM143.829 21.3295V19.9327C143.829 19.7581 143.829 19.5835 143.829 19.4089C143.655 19.0597 143.481 18.7104 143.133 18.3612C142.785 18.012 142.437 18.012 141.916 18.012C141.22 18.012 140.698 18.3612 140.35 18.885C140.002 19.4089 139.828 20.1073 139.828 20.9803C139.828 21.8533 140.002 22.3772 140.35 22.901C140.698 23.4248 141.22 23.774 141.916 23.774C142.437 23.774 142.959 23.5994 143.307 23.0756C143.655 22.3772 143.829 21.8533 143.829 21.3295Z" fill="#1F1F1F"/>
<path d="M160.701 20.631C160.701 21.8532 160.353 22.9009 159.657 23.5993C158.961 24.4723 157.918 24.8215 156.7 24.8215C155.482 24.8215 154.613 24.4723 153.917 23.5993C153.221 22.9009 152.873 21.8532 152.873 20.631C152.873 19.4087 153.221 18.3611 153.917 17.6627C154.613 16.7896 155.656 16.4404 156.874 16.4404C158.091 16.4404 158.961 16.7896 159.657 17.6627C160.353 18.3611 160.701 19.4087 160.701 20.631ZM158.787 20.631C158.787 19.9325 158.613 19.2341 158.265 18.7103C157.918 18.0119 157.396 17.8373 156.7 17.8373C156.004 17.8373 155.482 18.1865 155.135 18.7103C154.787 19.2341 154.613 19.9325 154.613 20.631C154.613 21.3294 154.787 22.0278 155.135 22.5516C155.482 23.2501 156.004 23.4247 156.7 23.4247C157.396 23.4247 157.918 23.0755 158.265 22.377C158.613 22.0278 158.787 21.3294 158.787 20.631Z" fill="#1F1F1F"/>
<path d="M170.267 24.6467H168.528V20.107C168.528 18.7101 168.006 18.0117 166.963 18.0117C166.441 18.0117 166.093 18.1863 165.745 18.5355C165.397 18.8847 165.223 19.4085 165.223 19.9323V24.6467H163.484V18.8847C163.484 18.1863 163.484 17.4879 163.484 16.6148H165.049V17.8371C165.223 17.4879 165.571 17.1387 165.919 16.7894C166.441 16.4402 166.963 16.2656 167.484 16.2656C168.18 16.2656 168.876 16.4402 169.398 16.9641C170.093 17.4879 170.267 18.3609 170.267 19.5831V24.6467Z" fill="#1F1F1F"/>
<path d="M182.095 18.0114H180.182V21.8527C180.182 22.9003 180.53 23.2495 181.225 23.2495C181.573 23.2495 181.747 23.2495 182.095 23.2495V24.6464C181.747 24.821 181.225 24.821 180.703 24.821C180.008 24.821 179.486 24.6464 179.138 24.1226C178.79 23.7734 178.616 22.9003 178.616 22.0273V18.0114H177.399V16.6145H178.616V15.2177L180.356 14.6938V16.6145H182.269V18.0114H182.095Z" fill="#1F1F1F"/>
<path d="M191.487 24.6463H189.748V20.1066C189.748 18.7097 189.226 18.0113 188.182 18.0113C187.312 18.0113 186.791 18.3605 186.443 19.2336C186.443 19.4082 186.443 19.5828 186.443 19.932V24.6463H184.703V12.9478H186.443V17.8367C186.965 16.9637 187.834 16.4399 188.878 16.4399C189.574 16.4399 190.269 16.6145 190.617 17.1383C191.139 17.6621 191.487 18.7097 191.487 19.7574V24.6463Z" fill="#1F1F1F"/>
<path d="M201.053 20.282C201.053 20.6312 201.053 20.8058 201.053 21.155H195.835C195.835 22.028 196.183 22.5518 196.531 22.9011C197.053 23.2503 197.575 23.4249 198.27 23.4249C199.14 23.4249 199.836 23.2503 200.358 23.0757L200.705 24.2979C200.01 24.6471 199.14 24.8217 198.096 24.8217C196.879 24.8217 195.835 24.4725 195.139 23.7741C194.444 23.0757 194.096 22.028 194.096 20.8058C194.096 19.5835 194.444 18.5359 195.139 17.8375C195.835 16.9644 196.705 16.6152 197.922 16.6152C199.14 16.6152 200.01 16.9644 200.531 17.8375C200.879 18.3613 201.053 19.2343 201.053 20.282ZM199.488 19.7581C199.488 19.2343 199.314 18.7105 199.14 18.3613C198.792 17.8375 198.444 17.6629 197.749 17.6629C197.227 17.6629 196.705 17.8375 196.357 18.3613C196.009 18.7105 195.835 19.2343 195.835 19.7581H199.488Z" fill="#1F1F1F"/>
</svg>
