<svg width="80" height="80" viewBox="0 0 80 80" fill="none" xmlns="http://www.w3.org/2000/svg">
<path d="M70.7657 46.75C70.6798 47.6094 69.8907 48.0391 69.2189 48.4297C68.5939 48.7891 67.9689 49.1562 67.3517 49.5156C66.3517 50.0937 65.3595 50.6719 64.3595 51.25C63.1095 51.9766 61.8673 52.7031 60.6173 53.4219C59.2423 54.2187 57.8673 55.0234 56.4845 55.8203C55.1017 56.625 53.7189 57.4297 52.3282 58.2344C51.0548 58.9766 49.7892 59.7109 48.5157 60.4531C47.4767 61.0547 46.4454 61.6562 45.4064 62.2578C44.7267 62.6484 44.047 63.0469 43.3673 63.4375C42.8517 63.7344 42.3673 64.0312 41.7814 64.2031C40.2579 64.6406 38.5704 64.4922 37.1954 63.6953C36.7032 63.4062 36.2032 63.125 35.711 62.8359C34.8048 62.3125 33.9064 61.7969 33.0001 61.2734C31.8126 60.5859 30.6251 59.8984 29.4376 59.2187C28.086 58.4375 26.7267 57.6562 25.3751 56.875C23.9767 56.0703 22.5782 55.2578 21.1798 54.4531C19.8595 53.6875 18.5392 52.9297 17.211 52.1641L13.836 50.2187C13.0314 49.75 12.2189 49.2891 11.4142 48.8203C11.047 48.6094 10.6798 48.3984 10.3126 48.1797C9.73448 47.8437 9.16417 47.3125 9.16417 46.5938C9.16417 47.25 9.16417 47.9062 9.15636 48.5703C9.15636 48.8047 9.14073 49.0469 9.15636 49.2891C9.20323 49.9219 9.70323 50.4141 10.2267 50.7266C10.547 50.9219 10.8751 51.1016 11.2032 51.2891C12.047 51.7734 12.8907 52.2656 13.7345 52.75C14.9532 53.4531 16.1642 54.1562 17.3829 54.8594C18.8282 55.6953 20.2814 56.5312 21.7267 57.3672C23.2345 58.2422 24.7423 59.1094 26.2579 59.9844C27.6954 60.8125 29.1251 61.6406 30.5626 62.4687C31.7579 63.1562 32.9454 63.8437 34.1407 64.5312C34.9454 65 35.7579 65.4609 36.5626 65.9297C37.0314 66.1953 37.4923 66.5 38.0001 66.6875C39.586 67.2656 41.4454 67.1406 42.9064 66.2891C43.461 65.9687 44.0157 65.6406 44.5704 65.3203C45.5939 64.7266 46.6173 64.1328 47.6329 63.5391C48.9689 62.7656 50.297 61.9922 51.6329 61.2109C53.1251 60.3437 54.6173 59.4766 56.1017 58.6094L60.5782 56.0078C61.9142 55.2266 63.2501 54.4531 64.5939 53.6719C65.6329 53.0703 66.672 52.4687 67.711 51.8594C68.2814 51.5234 68.8595 51.1953 69.4298 50.8594C69.6017 50.7578 69.7814 50.6562 69.9454 50.5391C70.3829 50.2109 70.7267 49.7578 70.7345 49.1875C70.7423 48.8984 70.7345 48.6172 70.7345 48.3281C70.7345 47.7578 70.7345 47.1797 70.7423 46.6094C70.7735 46.6719 70.7735 46.7109 70.7657 46.75C70.7657 46.7734 70.7657 46.7344 70.7657 46.75Z" fill="#8FC1EF"/>
<path d="M69.6563 45.0703C71.1406 45.9297 71.1485 47.3281 69.6719 48.1875L42.7656 63.8203C41.2891 64.6797 38.875 64.6797 37.3906 63.8203L10.3047 48.1875C8.82033 47.3281 8.81252 45.9297 10.2891 45.0703L37.1953 29.4297C38.6719 28.5703 41.086 28.5703 42.5703 29.4297L69.6563 45.0703Z" fill="#E4ECF9"/>
<path d="M40.7266 13.5937C41.4687 13.164 42.0781 13.5156 42.0859 14.3672L42.1641 41.3828C42.1641 42.2344 41.5625 43.289 40.8203 43.7187L27.0312 51.6719C26.2891 52.1015 25.6797 51.75 25.6719 50.8984L25.5938 23.8828C25.5938 23.0312 26.1953 21.9765 26.9453 21.5469L40.7266 13.5937Z" fill="#267FD0"/>
<path d="M39.4922 17.211C39.75 17.0625 39.9609 17.1797 39.9609 17.4766L40.0156 36.7422C40.0156 37.0391 39.8047 37.4063 39.5469 37.5547L28.2656 44.0703C28.0078 44.2188 27.7969 44.1016 27.7969 43.8047L27.7344 24.5391C27.7344 24.2422 27.9453 23.875 28.2031 23.7266L39.4922 17.211Z" fill="#3B94E5"/>
<path d="M41.0391 13.4609C41.0625 13.4531 41.0781 13.4453 41.1016 13.4453C41.1172 13.4375 41.1406 13.4375 41.1562 13.4297C41.1797 13.4219 41.2031 13.4219 41.2266 13.4219C41.2422 13.4219 41.25 13.4219 41.2656 13.4141H41.3672C41.3984 13.4141 41.4375 13.4219 41.4688 13.4297C41.4766 13.4297 41.4844 13.4297 41.4922 13.4375C41.5156 13.4453 41.5391 13.4531 41.5703 13.4609C41.5781 13.4609 41.5859 13.4687 41.5938 13.4687C41.625 13.4844 41.6562 13.4922 41.6797 13.5078L40.5234 12.8359C40.5234 12.8359 40.5156 12.8359 40.5156 12.8281C40.4922 12.8125 40.4688 12.8047 40.4453 12.7969C40.4375 12.7969 40.4375 12.7969 40.4297 12.7891C40.4219 12.7891 40.4141 12.7812 40.4063 12.7812C40.3906 12.7734 40.3828 12.7734 40.3672 12.7656C40.3516 12.7656 40.3438 12.7578 40.3281 12.7578C40.3203 12.7578 40.3125 12.75 40.3047 12.75H40.2891C40.2656 12.7422 40.2344 12.7422 40.2031 12.7422H40.0859C40.0703 12.7422 40.0625 12.7422 40.0469 12.75C40.0312 12.75 40.0234 12.75 40.0078 12.7578C40 12.7578 39.9844 12.7656 39.9766 12.7656C39.9609 12.7656 39.9375 12.7734 39.9219 12.7812C39.9141 12.7812 39.8984 12.7812 39.8906 12.7891C39.8828 12.7891 39.8672 12.7969 39.8594 12.7969C39.8281 12.8047 39.7969 12.8203 39.7656 12.8281C39.7578 12.8359 39.7422 12.8359 39.7344 12.8437C39.7266 12.8437 39.7188 12.8516 39.7188 12.8516C39.6641 12.875 39.6094 12.8984 39.5547 12.9375L25.7891 20.8828C25.7422 20.9062 25.7031 20.9375 25.6641 20.9609C25.6484 20.9687 25.6406 20.9844 25.625 20.9922C25.5938 21.0156 25.5703 21.0312 25.5391 21.0547C25.5234 21.0703 25.5078 21.0781 25.4922 21.0938C25.4687 21.1172 25.4375 21.1406 25.4141 21.1641C25.3984 21.1797 25.3828 21.1953 25.3672 21.2031C25.3594 21.2109 25.3516 21.2188 25.3359 21.2266C25.3281 21.2344 25.3203 21.25 25.3047 21.2578L25.2109 21.3516C25.2031 21.3594 25.1953 21.375 25.1797 21.3828C25.1719 21.3906 25.1641 21.3984 25.1563 21.4141C25.1406 21.4375 25.1172 21.4531 25.1016 21.4766C25.0937 21.4922 25.0781 21.5 25.0703 21.5156C25.0625 21.5312 25.0547 21.5391 25.0469 21.5547C25.0313 21.5703 25.0234 21.5859 25.0078 21.6094C25 21.6172 24.9922 21.6328 24.9844 21.6406C24.9687 21.6641 24.9531 21.6797 24.9453 21.7031C24.9375 21.7187 24.9297 21.7266 24.9219 21.7422C24.9219 21.75 24.9141 21.75 24.9141 21.7578L24.8438 21.875C24.8438 21.875 24.8438 21.8828 24.8359 21.8828C24.8281 21.8906 24.8281 21.8984 24.8203 21.9062C24.8047 21.9375 24.7891 21.9609 24.7734 21.9922C24.7656 22.0078 24.7578 22.0156 24.7578 22.0312C24.75 22.0469 24.7422 22.0625 24.7344 22.0703C24.7266 22.0859 24.7188 22.0937 24.7188 22.1094C24.7031 22.1406 24.6875 22.1719 24.6797 22.2031C24.6797 22.2109 24.6719 22.2187 24.6719 22.2266V22.2344C24.6562 22.2734 24.6406 22.3125 24.625 22.3594C24.625 22.3672 24.6172 22.375 24.6172 22.3828C24.6094 22.3984 24.6094 22.4141 24.6016 22.4297C24.5938 22.4531 24.5859 22.4687 24.5781 22.4922C24.5703 22.5078 24.5703 22.5234 24.5625 22.5391C24.5547 22.5547 24.5547 22.5781 24.5469 22.5938C24.5469 22.6094 24.5391 22.6172 24.5391 22.6328C24.5313 22.6563 24.5312 22.6719 24.5234 22.6953C24.5156 22.7188 24.5078 22.7422 24.5078 22.7656C24.5078 22.7734 24.5 22.7812 24.5 22.7891C24.5 22.8047 24.4922 22.8203 24.4922 22.8359C24.4844 22.875 24.4766 22.9062 24.4766 22.9453C24.4766 22.9531 24.4688 22.9688 24.4688 22.9766C24.4688 23 24.4609 23.0234 24.4609 23.0391C24.4609 23.0547 24.4609 23.0703 24.4531 23.0859C24.4531 23.1328 24.4453 23.1875 24.4453 23.2344L24.5234 50.25C24.5234 50.625 24.6406 50.8984 24.8359 51.0547C24.8672 51.0781 24.8906 51.0938 24.9219 51.1172L26.0781 51.7891C25.8359 51.6484 25.6797 51.3516 25.6797 50.9219L25.6016 23.9062C25.6016 23.8594 25.6016 23.8047 25.6094 23.7578C25.6094 23.7422 25.6094 23.7266 25.6172 23.7109C25.6172 23.6797 25.625 23.6484 25.6328 23.6172C25.6406 23.5859 25.6406 23.5469 25.6484 23.5078C25.6562 23.4844 25.6563 23.4609 25.6641 23.4297C25.6719 23.4062 25.6719 23.3828 25.6797 23.3594L25.7031 23.2656C25.7109 23.25 25.7109 23.2266 25.7188 23.2109C25.7266 23.1719 25.7422 23.1406 25.7578 23.1016C25.7656 23.0859 25.7656 23.0703 25.7734 23.0547C25.7891 23.0078 25.8125 22.9531 25.8359 22.9062C25.8359 22.8984 25.8437 22.8906 25.8437 22.8828C25.8594 22.8359 25.8828 22.7969 25.9063 22.7578C25.9141 22.7422 25.9219 22.7344 25.9297 22.7187C25.9531 22.6797 25.9766 22.6328 25.9922 22.5938C26 22.5859 26 22.5781 26.0078 22.5703C26.0312 22.5234 26.0625 22.4766 26.0938 22.4297C26.1016 22.4141 26.1094 22.4062 26.1172 22.3906L26.1875 22.2969C26.2031 22.2812 26.2109 22.2656 26.2266 22.2422C26.25 22.2188 26.2656 22.1875 26.2891 22.1641C26.3047 22.1406 26.3203 22.1172 26.3438 22.1016C26.3594 22.0781 26.375 22.0625 26.3984 22.0391C26.4297 22.0078 26.4609 21.9766 26.4844 21.9453L26.5391 21.8906C26.5547 21.875 26.5703 21.8594 26.5859 21.8516C26.6094 21.8281 26.6406 21.8047 26.6641 21.7812C26.6797 21.7656 26.6953 21.7578 26.7109 21.7422C26.7422 21.7187 26.7656 21.6953 26.7969 21.6797C26.8125 21.6719 26.8203 21.6562 26.8359 21.6484C26.875 21.6172 26.9219 21.5938 26.9609 21.5703L40.7266 13.5937C40.7812 13.5625 40.8359 13.5312 40.8984 13.5078C40.9141 13.5 40.9375 13.4922 40.9531 13.4844C40.9766 13.4766 41.0078 13.4687 41.0391 13.4609Z" fill="#3B94E5"/>
<path d="M34.6953 42.1562C35.5469 41.664 36.2344 42.0624 36.2422 43.039C36.25 44.0156 35.5547 45.2031 34.711 45.6953C33.8594 46.1874 33.1719 45.789 33.1719 44.8124C33.1563 43.8359 33.8438 42.6484 34.6953 42.1562Z" fill="white"/>
<path d="M51.6094 35.375C51.5937 35.3672 51.5859 35.3594 51.5703 35.3516L51.3828 35.2578L51.3359 35.2344C51.2969 35.2188 51.2656 35.2031 51.2266 35.1875C51.2031 35.1797 51.1797 35.1719 51.1562 35.1563C51.1328 35.1484 51.1172 35.1406 51.0938 35.1328C51.0234 35.1094 50.9453 35.0781 50.8672 35.0547H50.8516C50.7813 35.0313 50.7031 35.0156 50.625 35C50.6016 34.9922 50.5781 34.9922 50.5547 34.9844C50.5312 34.9766 50.5078 34.9766 50.4844 34.9688C50.4453 34.9609 50.3984 34.9531 50.3516 34.9531C50.3359 34.9531 50.3203 34.9453 50.2969 34.9453C50.2266 34.9375 50.1484 34.9297 50.0703 34.9219H49.625C49.5859 34.9219 49.5391 34.9297 49.5 34.9297C49.4687 34.9297 49.4375 34.9297 49.4141 34.9375C49.3203 34.9453 49.2344 34.9531 49.1406 34.9688H49.1328C49.0313 34.9844 48.9297 35 48.8281 35.0234L48.7344 35.0469L48.5469 35.0938C48.5391 35.0938 48.5313 35.1016 48.5313 35.1016C48.4141 35.1328 48.2891 35.1719 48.1719 35.2109L48.1016 35.2344C48 35.2656 47.9063 35.3047 47.8047 35.3437C47.7891 35.3516 47.7813 35.3516 47.7656 35.3594C47.6875 35.3906 47.6016 35.4297 47.5234 35.4688C47.5156 35.4766 47.5 35.4766 47.4922 35.4844C47.3984 35.5234 47.3125 35.5703 47.2188 35.6172C47.1953 35.6328 47.1641 35.6484 47.1406 35.6562C47.0391 35.7109 46.9375 35.7656 46.8281 35.8281C46.7188 35.8906 46.6094 35.9531 46.5078 36.0234C46.4766 36.0469 46.4375 36.0703 46.4062 36.0938C46.3359 36.1406 46.2656 36.1875 46.1875 36.2344C46.1484 36.2656 46.1094 36.2891 46.0703 36.3203C46.0078 36.3672 45.9375 36.4141 45.875 36.4609L45.7578 36.5547C45.6953 36.6016 45.625 36.6562 45.5625 36.7109C45.5234 36.7422 45.4844 36.7734 45.4531 36.8047C45.375 36.8672 45.3047 36.9297 45.2344 36.9922C45.2109 37.0156 45.1797 37.0391 45.1484 37.0625C45.0469 37.1484 44.9531 37.2422 44.8516 37.3281C44.8281 37.3437 44.8125 37.3672 44.7891 37.3906C44.7266 37.4531 44.6562 37.5156 44.5937 37.5781L44.5625 37.6094C44.4453 37.7266 44.3359 37.8437 44.2188 37.9609C44.2109 37.9687 44.2109 37.9766 44.2031 37.9766C44.0937 38.0938 43.9922 38.2109 43.8906 38.3281L43.8594 38.3594L43.7422 38.5C43.7031 38.5469 43.6562 38.6016 43.6172 38.6484C43.5625 38.7109 43.5156 38.7734 43.4609 38.8438C43.4219 38.8906 43.3828 38.9453 43.3437 38.9922C43.3359 39 43.3281 39.0078 43.3203 39.0234C43.3047 39.0391 43.2969 39.0547 43.2812 39.0703C43.1562 39.2344 43.0313 39.4063 42.9063 39.5781C42.8906 39.5938 42.8828 39.6094 42.8672 39.6328C42.8594 39.6406 42.8594 39.6484 42.8516 39.6563C42.7344 39.8203 42.625 39.9922 42.5078 40.1641C42.5 40.1797 42.4844 40.1953 42.4766 40.2109C42.4609 40.2344 42.4453 40.2578 42.4297 40.2891C42.3437 40.4297 42.2578 40.5703 42.1719 40.7188C42.1562 40.7422 42.1406 40.7656 42.1328 40.7891C42.125 40.7969 42.125 40.8047 42.1172 40.8125C42.0234 40.9766 41.9297 41.1406 41.8359 41.3125C41.8281 41.3281 41.8203 41.3359 41.8125 41.3516C41.7969 41.3828 41.7813 41.4063 41.7734 41.4375C41.7031 41.5703 41.6328 41.7031 41.5703 41.8437C41.5547 41.875 41.5391 41.8984 41.5312 41.9297C41.5234 41.9453 41.5156 41.9609 41.5078 41.9844C41.4297 42.1563 41.3437 42.3281 41.2734 42.5C41.2734 42.5078 41.2656 42.5078 41.2656 42.5156C41.2578 42.5313 41.25 42.5547 41.2422 42.5703C41.1719 42.7266 41.1094 42.8828 41.0469 43.0391C41.0391 43.0625 41.0234 43.0859 41.0156 43.1172C41.0078 43.1406 41 43.1563 40.9922 43.1797C40.9219 43.3672 40.8516 43.5547 40.7891 43.7422V43.75C40.75 43.875 40.7109 44 40.6719 44.1172C40.6641 44.1484 40.6484 44.1875 40.6406 44.2188C40.6172 44.2891 40.6016 44.3594 40.5781 44.4297C40.5703 44.4531 40.5703 44.4766 40.5625 44.5C40.5469 44.5547 40.5312 44.6172 40.5156 44.6719C40.4922 44.75 40.4766 44.8281 40.4609 44.9062C40.4453 44.9688 40.4375 45.0234 40.4219 45.0859C40.4141 45.125 40.4062 45.1641 40.3906 45.2109C40.3828 45.2422 40.3828 45.2656 40.375 45.2969C40.3594 45.3828 40.3438 45.4766 40.3281 45.5625C40.3203 45.625 40.3047 45.6875 40.2969 45.7422C40.2812 45.8359 40.2656 45.9219 40.2578 46.0156C40.25 46.0547 40.2422 46.1016 40.2422 46.1406C40.2422 46.1562 40.2344 46.1797 40.2344 46.1953C40.2266 46.2344 40.2266 46.2813 40.2187 46.3203L40.1953 46.5781C40.1875 46.625 40.1875 46.6641 40.1875 46.7109C40.1797 46.7969 40.1797 46.8828 40.1719 46.9688C40.1719 47.0078 40.1641 47.0469 40.1641 47.0859C40.1562 47.2109 40.1563 47.3359 40.1563 47.4531C40.1641 49.5703 40.9141 51.0625 42.1172 51.7656L43.2734 52.4375C42.0625 51.7344 41.3203 50.2422 41.3125 48.125C41.3125 48 41.3125 47.8828 41.3203 47.7578C41.3203 47.7188 41.3203 47.6797 41.3281 47.6406C41.3359 47.5547 41.3359 47.4688 41.3438 47.3828C41.3438 47.3359 41.3516 47.2969 41.3516 47.25L41.375 46.9922C41.3828 46.9531 41.3828 46.9063 41.3906 46.8672C41.3984 46.8047 41.4062 46.7422 41.4141 46.6875C41.4297 46.5937 41.4375 46.5078 41.4531 46.4141C41.4609 46.3516 41.4766 46.2891 41.4844 46.2344C41.5 46.1484 41.5156 46.0625 41.5312 45.9688L41.5781 45.7578C41.5938 45.6953 41.6016 45.6406 41.6172 45.5781C41.6328 45.5 41.6563 45.4219 41.6719 45.3438C41.6875 45.2891 41.7031 45.2266 41.7188 45.1719C41.7422 45.0781 41.7734 44.9844 41.7969 44.8906C41.8047 44.8594 41.8203 44.8203 41.8281 44.7891C41.8672 44.6641 41.9062 44.5313 41.9531 44.4063C42.0156 44.2188 42.0859 44.0313 42.1562 43.8438C42.1719 43.7969 42.1953 43.75 42.2109 43.7031C42.2734 43.5469 42.3359 43.3906 42.4062 43.2344C42.4141 43.2109 42.4219 43.1875 42.4375 43.1641L42.6719 42.6484C42.6953 42.6016 42.7188 42.5625 42.7344 42.5156C42.7969 42.3828 42.8672 42.2422 42.9375 42.1094C42.9609 42.0703 42.9766 42.0234 43 41.9844C43.0938 41.8125 43.1797 41.6484 43.2812 41.4844C43.2969 41.4531 43.3203 41.4219 43.3359 41.3906C43.4219 41.25 43.5078 41.1016 43.5938 40.9609C43.6172 40.9219 43.6484 40.875 43.6719 40.8359C43.7812 40.6641 43.8984 40.4922 44.0156 40.3281C44.0313 40.3047 44.0547 40.2813 44.0703 40.25C44.1953 40.0781 44.3203 39.9063 44.4453 39.7422C44.4609 39.7188 44.4844 39.6875 44.5 39.6641C44.5391 39.6094 44.5781 39.5625 44.625 39.5078C44.6797 39.4453 44.7266 39.3828 44.7813 39.3203C44.8203 39.2656 44.8672 39.2188 44.9062 39.1719C44.9531 39.1094 45.0078 39.0547 45.0547 39C45.1563 38.8828 45.2656 38.7656 45.375 38.6484C45.3828 38.6406 45.3828 38.6328 45.3906 38.6328C45.5 38.5156 45.6172 38.3984 45.7344 38.2813C45.8047 38.2109 45.8828 38.1406 45.9531 38.0625C45.9766 38.0469 45.9922 38.0234 46.0156 38C46.1172 37.9062 46.2109 37.8203 46.3125 37.7344C46.3359 37.7109 46.3672 37.6875 46.3906 37.6641C46.4609 37.6016 46.5391 37.5391 46.6094 37.4766C46.6484 37.4453 46.6875 37.4141 46.7188 37.3828C46.7812 37.3281 46.8516 37.2813 46.9141 37.2266L47.0312 37.1328C47.0938 37.0859 47.1641 37.0391 47.2266 36.9922C47.2656 36.9609 47.3047 36.9375 47.3438 36.9062C47.4141 36.8594 47.4844 36.8125 47.5625 36.7656C47.5937 36.7422 47.6328 36.7188 47.6641 36.6953C47.7734 36.625 47.875 36.5625 47.9844 36.5C48.0859 36.4375 48.1953 36.3828 48.2969 36.3281C48.3203 36.3125 48.3516 36.2969 48.375 36.2891C48.4688 36.2422 48.5547 36.1953 48.6484 36.1562C48.6563 36.1484 48.6719 36.1484 48.6797 36.1406C48.7734 36.0938 48.8672 36.0547 48.9609 36.0156C49.0625 35.9766 49.1562 35.9375 49.2578 35.8984L49.3281 35.875C49.4531 35.8359 49.5703 35.7969 49.6875 35.7656C49.7578 35.75 49.8281 35.7266 49.8984 35.7109C49.9297 35.7031 49.9609 35.6953 50 35.6875C50.1016 35.6641 50.2031 35.6484 50.3047 35.6328H50.3125C50.4062 35.6172 50.4922 35.6094 50.5859 35.6016C50.6172 35.6016 50.6484 35.5938 50.6719 35.5938C50.7344 35.5859 50.8047 35.5859 50.8672 35.5859H51.2187C51.3047 35.5938 51.3906 35.6016 51.4687 35.6094C51.4844 35.6094 51.5 35.6172 51.5234 35.6172C51.5938 35.625 51.6562 35.6406 51.7266 35.6484C51.75 35.6562 51.7734 35.6563 51.7969 35.6641C51.875 35.6797 51.9453 35.6953 52.0234 35.7188H52.0391C52.1172 35.7422 52.1953 35.7656 52.2656 35.7969C52.2891 35.8047 52.3047 35.8125 52.3281 35.8203C52.3906 35.8438 52.4453 35.8672 52.5078 35.8984L52.5547 35.9219C52.6328 35.9609 52.7031 36 52.7734 36.0391L51.6094 35.375Z" fill="#C68620"/>
<path d="M47.9844 36.5156C51.6953 34.375 54.7188 36.0938 54.7344 40.3594C54.75 44.625 51.7422 49.8281 48.0313 51.9688C44.3203 54.1094 41.2969 52.3906 41.2891 48.125C41.2813 43.8594 44.2656 38.6641 47.9844 36.5156Z" fill="#FFCD2E"/>
<path d="M47.1094 48.0547L46.2656 47.5625C46.2578 47.5625 46.2578 47.5547 46.25 47.5547L47.0937 48.0469C47.1016 48.0469 47.1016 48.0547 47.1094 48.0547Z" fill="#858585"/>
</svg>
