<svg width="150" height="277" viewBox="0 0 150 277" fill="none" xmlns="http://www.w3.org/2000/svg">
<path d="M29.0624 120.803C29.0675 91.9448 52.4654 68.5551 81.3231 68.5601L185.319 68.5783C213.95 68.5833 237.156 91.7977 237.151 120.429L237.144 160.082C237.133 224.475 184.923 276.667 120.53 276.656C69.9987 276.647 29.0424 235.676 29.0512 185.145L29.0624 120.803Z" fill="#267FD0" fill-opacity="0.1"/>
<path d="M0.0250278 65.8998C0.0312958 29.9871 29.1494 0.879105 65.0621 0.885373L192.296 0.907579C219.747 0.91237 241.996 23.1694 241.991 50.62L241.984 91.0165C241.972 161.525 184.804 218.673 114.295 218.661C51.1708 218.65 0.00730066 167.469 0.0183179 104.345L0.0250278 65.8998Z" fill="#267FD0" fill-opacity="0.2"/>
</svg>
